<svg width="52" height="41" viewBox="0 0 52 41" fill="none" xmlns="http://www.w3.org/2000/svg">
<path fill-rule="evenodd" clip-rule="evenodd" d="M26 6.8972C24.1212 6.8972 22.5981 8.09807 22.5981 9.57944H13.8505C13.8505 4.28887 19.29 0 26 0C32.7101 0 38.1495 4.28887 38.1495 9.57944C38.1495 14.87 32.7101 19.1589 26 19.1589V12.2617C27.8788 12.2617 29.4018 11.0608 29.4018 9.57944C29.4018 8.09807 27.8788 6.8972 26 6.8972ZM43.2523 20.5C43.2523 19.0186 41.7292 17.8178 39.8505 17.8178V10.9206C46.5605 10.9206 52 15.2094 52 20.5C52 25.7906 46.5605 30.0794 39.8505 30.0794C33.1404 30.0794 27.7009 25.7906 27.7009 20.5H36.4486C36.4486 21.9813 37.9717 23.1822 39.8505 23.1822C41.7292 23.1822 43.2523 21.9813 43.2523 20.5ZM12.1495 23.1822C10.2707 23.1822 8.74767 21.9813 8.74767 20.5C8.74767 19.0186 10.2707 17.8178 12.1495 17.8178C14.0283 17.8178 15.5514 19.0186 15.5514 20.5H24.2991C24.2991 15.2094 18.8595 10.9206 12.1495 10.9206C5.43954 10.9206 0 15.2094 0 20.5C0 25.7906 5.43954 30.0794 12.1495 30.0794V23.1822ZM26 34.1028C27.8788 34.1028 29.4018 32.9019 29.4018 31.4206H38.1495C38.1495 36.7112 32.7101 41 26 41C19.29 41 13.8505 36.7112 13.8505 31.4206C13.8505 26.1299 19.29 21.8411 26 21.8411V28.7383C24.1212 28.7383 22.5981 29.9392 22.5981 31.4206C22.5981 32.9019 24.1212 34.1028 26 34.1028Z" fill="black"/>
</svg>
