<svg xmlns="http://www.w3.org/2000/svg" version="1.1" width="193px" height="143px" style="shape-rendering:geometricPrecision; text-rendering:geometricPrecision; image-rendering:optimizeQuality; fill-rule:evenodd; clip-rule:evenodd" xmlns:xlink="http://www.w3.org/1999/xlink">
<g><path style="opacity:0.54" fill="#ffffff" d="M 149.5,9.5 C 150.822,9.33003 151.989,9.66337 153,10.5C 153.197,18.5485 153.697,26.5485 154.5,34.5C 152.994,35.7472 151.494,35.7472 150,34.5C 149.5,26.1733 149.334,17.84 149.5,9.5 Z"/></g>
<g><path style="opacity:0.665" fill="#ffffff" d="M 63.5,18.5 C 65.5901,18.4501 66.9234,19.4501 67.5,21.5C 69.7427,22.4742 72.076,22.8076 74.5,22.5C 74.5,23.5 74.5,24.5 74.5,25.5C 72.139,25.6741 69.8056,26.0074 67.5,26.5C 67.1842,29.9783 67.6842,33.3117 69,36.5C 69.8747,33.7854 71.7081,32.4521 74.5,32.5C 74.4273,38.5464 71.4273,40.7131 65.5,39C 64.0293,35.6791 63.3626,32.1791 63.5,28.5C 61.5,28.5 59.5,28.5 57.5,28.5C 57.33,27.1779 57.6634,26.0113 58.5,25C 60.1012,24.7266 61.6012,24.2266 63,23.5C 62.4742,21.7725 62.6409,20.1059 63.5,18.5 Z"/></g>
<g><path style="opacity:0.663" fill="#ffffff" d="M 26.5,22.5 C 27.8221,22.33 28.9887,22.6634 30,23.5C 30.6667,26.1667 31.3333,28.8333 32,31.5C 36.4057,28.2485 39.4057,29.2485 41,34.5C 43.3621,28.2141 47.5288,26.5475 53.5,29.5C 55.117,32.7843 57.4503,35.4509 60.5,37.5C 60.1131,38.7199 59.2798,39.3865 58,39.5C 55.9423,38.8883 54.109,37.8883 52.5,36.5C 49.4619,39.5297 45.9619,40.1964 42,38.5C 40.8456,40.9574 39.5123,40.9574 38,38.5C 37.1376,36.913 36.4709,35.2464 36,33.5C 33.8241,35.8749 31.6574,38.2082 29.5,40.5C 28.914,40.2907 28.414,39.9574 28,39.5C 27.6667,37.5 27.3333,35.5 27,33.5C 25.5422,35.96 23.7089,38.1266 21.5,40C 20.1011,40.5946 18.7678,40.4279 17.5,39.5C 15.1717,41.8004 13.005,41.8004 11,39.5C 10.3333,36.1667 10.3333,32.8333 11,29.5C 12.5874,28.273 13.9207,28.6063 15,30.5C 15,31.8333 15,33.1667 15,34.5C 17,31.8333 19,31.8333 21,34.5C 22.8123,31.7198 24.979,29.2198 27.5,27C 26.6198,25.6439 26.2865,24.1439 26.5,22.5 Z M 49.5,31.5 C 49.3969,34.5644 48.0636,35.5644 45.5,34.5C 46.0766,32.4501 47.4099,31.4501 49.5,31.5 Z"/></g>
<g><path style="opacity:0.705" fill="#ffffff" d="M 160.5,22.5 C 162.857,22.3367 165.19,22.5034 167.5,23C 170.642,27.9214 169.142,30.7547 163,31.5C 159.24,30.2639 158.74,31.0973 161.5,34C 162.416,34.3742 163.25,34.8742 164,35.5C 166.621,34.0085 169.455,33.3418 172.5,33.5C 172.191,36.3455 170.525,37.8455 167.5,38C 154.381,37.8527 152.048,32.686 160.5,22.5 Z M 163.5,25.5 C 164.043,25.56 164.376,25.8933 164.5,26.5C 163.635,27.5827 162.635,27.7494 161.5,27C 162.416,26.7216 163.082,26.2216 163.5,25.5 Z"/></g>
<g><path style="opacity:0.688" fill="#ffffff" d="M 137.5,23.5 C 146.167,23.6198 148.834,27.4532 145.5,35C 143.19,35.4966 140.857,35.6633 138.5,35.5C 138.154,38.6021 138.821,41.4355 140.5,44C 137.791,47.4346 135.957,46.9346 135,42.5C 134.667,39.1667 134.333,35.8333 134,32.5C 130.295,36.2667 125.962,37.2667 121,35.5C 119.181,39.0174 116.181,40.684 112,40.5C 107.667,40.5 104.667,38.5 103,34.5C 100.569,37.5183 97.5686,38.1849 94,36.5C 93.7443,40.2463 94.2443,43.913 95.5,47.5C 91.6482,47.5113 89.8149,45.5113 90,41.5C 89.3333,37.8333 89.3333,34.1667 90,30.5C 91.077,25.8848 93.9103,24.3848 98.5,26C 100.624,27.1217 102.457,28.6217 104,30.5C 106.938,24.3269 111.271,22.9936 117,26.5C 117.639,30.8736 115.639,33.2069 111,33.5C 109.7,32.548 108.533,32.548 107.5,33.5C 108.528,35.3615 110.028,36.6948 112,37.5C 114.456,36.4258 116.956,35.4258 119.5,34.5C 117.795,25.7195 121.462,22.5528 130.5,25C 132,25.8333 133.167,27 134,28.5C 134.997,26.6769 136.164,25.0103 137.5,23.5 Z M 111.5,27.5 C 112.043,27.56 112.376,27.8933 112.5,28.5C 111.635,29.5827 110.635,29.7494 109.5,29C 110.416,28.7216 111.082,28.2216 111.5,27.5 Z M 125.5,27.5 C 132.15,29.4708 132.15,31.4708 125.5,33.5C 124.09,33.1322 123.09,32.2989 122.5,31C 123.71,29.9609 124.71,28.7942 125.5,27.5 Z M 141.5,27.5 C 143.561,28.7514 143.894,30.4181 142.5,32.5C 140.296,31.218 139.962,29.5514 141.5,27.5 Z M 96.5,29.5 C 99.4073,30.614 99.9073,32.2807 98,34.5C 95.676,33.2247 95.176,31.558 96.5,29.5 Z"/></g>
<g><path style="opacity:0.653" fill="#ffffff" d="M 84.5,50.5 C 86.6348,50.147 87.9681,50.9803 88.5,53C 87.6328,56.1052 87.2994,59.2719 87.5,62.5C 90.9297,62.1065 94.0964,62.7732 97,64.5C 98.2121,67.8342 97.3788,70.3342 94.5,72C 90.8823,72.966 87.549,72.466 84.5,70.5C 83.3534,63.8597 83.3534,57.193 84.5,50.5 Z M 89.5,65.5 C 94.1158,66.0407 94.4491,67.374 90.5,69.5C 88.3576,68.5629 88.0243,67.2296 89.5,65.5 Z"/></g>
<g><path style="opacity:0.58" fill="#ffffff" d="M 126.5,53.5 C 129.272,53.5952 131.272,54.9285 132.5,57.5C 130.45,58.6627 128.45,58.4961 126.5,57C 125.316,55.8545 125.316,54.6879 126.5,53.5 Z"/></g>
<g><path style="opacity:0.638" fill="#ffffff" d="M 113.5,68.5 C 113.5,65.5 113.5,62.5 113.5,59.5C 117.802,58.8505 119.135,60.3505 117.5,64C 117.509,65.4038 118.009,66.5704 119,67.5C 121.142,65.3818 122.642,62.8818 123.5,60C 126.179,60.1575 128.846,60.6575 131.5,61.5C 131.34,63.1992 131.506,64.8659 132,66.5C 133.261,64.37 133.761,62.2033 133.5,60C 135.108,59.342 136.275,59.842 137,61.5C 139.034,58.141 141.368,57.8076 144,60.5C 144.29,62.0441 144.956,63.3774 146,64.5C 148.99,58.9941 152.657,58.3275 157,62.5C 159.125,61.1485 160.292,61.8152 160.5,64.5C 158.786,69.7346 157.453,75.0679 156.5,80.5C 155.409,81.8876 154.076,82.3876 152.5,82C 151.335,80.9164 150.002,80.0831 148.5,79.5C 147.571,78.3112 147.238,76.9778 147.5,75.5C 149.766,75.1412 151.599,75.8078 153,77.5C 154.252,74.9865 154.752,72.3198 154.5,69.5C 151.881,69.7683 149.381,69.435 147,68.5C 145.847,70.497 144.347,70.8304 142.5,69.5C 141.041,63.1813 139.041,63.1813 136.5,69.5C 135.349,70.731 134.183,70.731 133,69.5C 132.311,70.3567 131.478,71.0233 130.5,71.5C 128.482,69.3029 127.315,66.6363 127,63.5C 124.229,69.5806 122.229,75.9139 121,82.5C 118.833,84 117.333,83.5 116.5,81C 117.401,78.1289 118.401,75.2956 119.5,72.5C 117.099,71.6424 115.099,70.309 113.5,68.5 Z M 151.5,63.5 C 156.276,63.6708 156.609,64.6708 152.5,66.5C 150.197,66.1237 149.863,65.1237 151.5,63.5 Z"/></g>
<g><path style="opacity:0.676" fill="#ffffff" d="M 113.5,68.5 C 113.5,69.5 113.5,70.5 113.5,71.5C 109.232,71.0759 104.899,70.9092 100.5,71C 100,70.5 99.5,70 99,69.5C 98.502,66.5184 98.3354,63.5184 98.5,60.5C 99.8333,60.5 101.167,60.5 102.5,60.5C 102.232,63.1194 102.565,65.6194 103.5,68C 105.387,68.1626 106.887,67.3293 108,65.5C 108.098,63.3807 108.931,61.714 110.5,60.5C 111.086,60.7093 111.586,61.0426 112,61.5C 112.186,64.0356 112.686,66.369 113.5,68.5 Z"/></g>
<g><path style="opacity:0.657" fill="#ffffff" d="M 44.5,61.5 C 47.1873,61.3359 49.854,61.5026 52.5,62C 54.3333,62.5 55.5,63.6667 56,65.5C 59.4311,61.1059 63.4311,60.4392 68,63.5C 68.6393,67.8736 66.6393,70.2069 62,70.5C 60.6996,69.548 59.533,69.548 58.5,70.5C 59.5283,72.3615 61.0283,73.6948 63,74.5C 65.6212,73.0085 68.4545,72.3418 71.5,72.5C 71.6399,74.1238 70.9733,75.2904 69.5,76C 64.0016,78.5973 59.1683,77.7639 55,73.5C 54.2419,71.2305 54.4086,69.0639 55.5,67C 52.6715,65.4914 49.8381,65.3247 47,66.5C 46.3131,68.5675 46.4798,70.5675 47.5,72.5C 47.1345,73.9019 46.3012,74.9019 45,75.5C 41.1195,75.3145 37.7862,73.9812 35,71.5C 30.3401,77.1706 26.5067,76.8373 23.5,70.5C 25.3165,64.2584 29.3165,62.2584 35.5,64.5C 37.4271,67.35 39.5938,70.0167 42,72.5C 42.1065,68.5794 42.9399,64.9127 44.5,61.5 Z M 62.5,64.5 C 63.0431,64.56 63.3764,64.8933 63.5,65.5C 62.635,66.5827 61.635,66.7494 60.5,66C 61.4158,65.7216 62.0825,65.2216 62.5,64.5 Z M 30.5,66.5 C 31.3764,66.3691 32.0431,66.7025 32.5,67.5C 31.6548,70.4122 29.9882,71.4122 27.5,70.5C 28.5244,69.1482 29.5244,67.8149 30.5,66.5 Z"/></g>
<g><path style="opacity:0.806" fill="#ffffff" d="M 92.5,91.5 C 96.3129,92.63 99.3129,94.9633 101.5,98.5C 100.277,99.6139 98.9437,99.7805 97.5,99C 94.758,97.1136 93.0913,94.6136 92.5,91.5 Z"/></g>
<g><path style="opacity:0.77" fill="#ffffff" d="M 105.5,103.5 C 109.313,104.63 112.313,106.963 114.5,110.5C 113.277,111.614 111.944,111.781 110.5,111C 107.758,109.114 106.091,106.614 105.5,103.5 Z"/></g>
<g><path style="opacity:0.762" fill="#ffffff" d="M 120.5,114.5 C 124.953,115.199 127.953,117.532 129.5,121.5C 126.309,120.908 123.309,119.741 120.5,118C 119.316,116.855 119.316,115.688 120.5,114.5 Z"/></g>
<g><path style="opacity:0.819" fill="#ffffff" d="M 160.5,118.5 C 163.016,118.755 165.35,119.589 167.5,121C 172.497,124.834 177.83,128.167 183.5,131C 184.337,132.011 184.67,133.178 184.5,134.5C 175.497,135.834 166.497,137.167 157.5,138.5C 157.36,136.876 158.027,135.71 159.5,135C 163.44,133.985 167.44,133.485 171.5,133.5C 171.286,131.856 171.62,130.356 172.5,129C 169.003,126.417 165.336,124.084 161.5,122C 160.663,120.989 160.33,119.822 160.5,118.5 Z"/></g>
<g><path style="opacity:0.819" fill="#ffffff" d="M 136.5,121.5 C 139.763,122.482 143.097,123.149 146.5,123.5C 146.5,124.5 146.5,125.5 146.5,126.5C 143.09,126.543 139.757,126.043 136.5,125C 135.829,124.014 135.829,122.847 136.5,121.5 Z"/></g>
<g><path style="opacity:0.766" fill="#ffffff" d="M 154.5,125.5 C 157.802,126.294 161.135,126.96 164.5,127.5C 164.5,128.5 164.5,129.5 164.5,130.5C 161.09,130.543 157.757,130.043 154.5,129C 153.316,127.855 153.316,126.688 154.5,125.5 Z"/></g>
</svg>
