<svg xmlns="http://www.w3.org/2000/svg" version="1.1" viewBox="0 0 1600 1104" width="1280" height="1280">
<path transform="translate(1310,276)" d="m0 0c5.1 3.21 9.28 5.98 10.8 12.1 0.296 4.59-0.379 8.5-1.75 12.9-0.495 0.495-0.495 0.495-1 1-5.25-0.14-10.4-1.05-15.6-2.06-11.4-2.09-20.2-0.48-30.1 5.88-8.59 5.84-8.59 5.84-14.3 14.2 0 5.27 3.56 9.31 7 13 8.8 7.01 21.3 7.13 32 6 10.7-1.92 21.5-6.27 29.1-14.2 2.2-3.25 3.29-6.52 4.36-10.2 1.82-6.34 4.1-11.6 10.1-15 4.63-2.13 8.23-1.28 12.9 0.344 2.93 1.35 4.99 2.42 6.83 5.1 2.76 8.4-0.784 17.5-4.32 25.1-1.3 2.36-2.67 4.66-4.06 6.97-15.3 25.7-22.5 57.6-27.7 86.8-0.153 0.844-0.305 1.69-0.463 2.56-0.747 4.16-1.47 8.32-2.16 12.5-3.07 18.1-9.06 34.1-24.6 45.2-4.29 2.35-7.28 2.14-12 1-2.37-1.24-4.44-2.44-6.62-3.94-0.601-0.398-1.2-0.796-1.82-1.21-4.75-3.19-9.29-6.64-13.8-10.2-3.63-2.85-7.35-5.46-11.2-7.99-13.2-8.73-13.2-8.73-15.6-15.7-0.747-5.24-0.66-9.51 1.5-14.4 4.53-4.76 8.79-7.86 15.5-8.38 5.01 0.284 7.64 2.14 11.1 5.62 2.52 2.87 4.85 5.86 7.14 8.92 4.61 5.92 9.55 11.5 17.2 12.8 4.22-0.741 5.64-1.67 8.13-5.08 5.32-9.46 6.51-22.4 8.41-32.9 0.26-1.41 0.521-2.82 0.783-4.23 0.677-3.65 1.35-7.31 2.02-11 1.08-5.89 2.17-11.8 3.26-17.7 0.378-2.05 0.752-4.1 1.13-6.15 0.227-1.23 0.455-2.47 0.689-3.74 0.199-1.09 0.398-2.17 0.603-3.29 0.549-2.57 0.549-2.57 1.55-4.57-1.7 0.464-1.7 0.464-3.44 0.938-14.3 3.89-31 3.14-45.4 0.812-0.706-0.109-1.41-0.218-2.14-0.331-11.9-2.18-20.8-9.76-27.9-19.4-5.39-8.24-9.33-16.5-7.72-26.5 4.01-15.4 16.8-26.5 30-34.4 16.1-9.31 33.9-16.5 51.6-7.07z" fill="#ffffff"/>
<path transform="translate(1483 270)" d="m0 0c7.28 5.87 12.7 14.1 13.8 23.5 0.973 11.7-1.63 20.1-8.82 29.5-9.21 10.8-18.5 14-32.2 16.5-0.886 0.186-1.77 0.371-2.68 0.562-13 2.46-26.5-2.58-37.3-9.56-2.67-1.85-5.31-3.73-7.91-5.68-2.1-1.59-2.1-1.59-5.09-1.32-0.227 0.639-0.454 1.28-0.688 1.94-1.14 2.66-2.41 4.96-3.88 7.44-2.74 4.96-4.1 8.62-2.84 14.3 4.7 15.8 14.2 26.4 28.4 34.3 7.95 4.16 16.1 5.23 25 6 0.977 0.0851 1.95 0.17 2.96 0.258 13.6 0.573 27.5-4.02 40.6-7.43 5.8-1.41 11.2-1.99 17.2-2.02 1.31-0.0142 2.63-0.0284 3.98-0.043 3.27 0.23 3.27 0.23 5.27 2.23 0.72 5.98 1.31 12-2 17.1-6.08 3.8-11.9 6.41-18.9 7.81-0.764 0.157-1.53 0.314-2.31 0.476-1.68 0.344-3.36 0.685-5.04 1.02-2.85 0.595-5.69 1.26-8.52 1.93-29.1 6.66-55.6 5.53-81.3-10.3-11.7-8.14-19.5-17.5-25.8-30.1-0.456-0.808-0.913-1.62-1.38-2.45-5.43-10.9-3.71-26 0.00781-37.1 10.2-25.5 27.6-51.6 53.4-63.4 18.8-7.92 39.1-7.4 56.2 4.46zm-69.2 36.5v1c0.811 0.182 1.62 0.364 2.46 0.551 1.11 0.251 2.21 0.503 3.36 0.762 1.79 0.406 1.79 0.406 3.62 0.82 3.02 0.735 5.92 1.61 8.88 2.55 9.43 2.56 19.3 2.92 28.3-1.25 4.62-2.68 8.93-5.56 11.4-10.4 0.424-3.21 0.424-3.21-1-6-5.73-5.2-12.9-8.36-20.6-9.56-14.7 2.4-26.2 11.3-36.4 21.6z" fill="#ffffff"/>
<path transform="translate(1e3 257)" d="m0 0c6.15 2.11 9.92 5.12 13 10.9 6.98 14.5 7.44 30.8 8.36 46.5 0.413 5.97 1.56 11.8 2.69 17.6 3.19 16.7 3.19 16.7 1.94 22.9-1.29 1.77-1.29 1.77-3 3-3.88 0.581-6.39 0.813-9.9-0.961-10.1-7.65-12.2-22.3-14.1-34-0.713-5.36-1.35-10.7-1.87-16.1-0.105-0.981-0.21-1.96-0.318-2.97-0.0845-0.875-0.169-1.75-0.256-2.65-0.635-2.6-1.52-3.58-3.55-5.26-4.43 2.81-8.35 5.91-12.2 9.5-0.845 0.787-0.845 0.787-1.71 1.59-9.08 8.57-17 17.9-24.7 27.8-9.78 12.6-9.78 12.6-15.4 13.4-3.3 0.155-5.77-0.165-8.9-1.28-3.16-2.89-4.32-5.89-5.19-10-0.218-5.35 0.0353-10.7 0.312-16 0.0634-1.46 0.125-2.91 0.186-4.37 0.15-3.54 0.32-7.09 0.502-10.6-3.95 1.8-5.74 3.88-8.38 7.38-0.421 0.557-0.841 1.11-1.27 1.69-7.01 9.38-13.6 19.1-20.3 28.7-0.935 1.35-0.935 1.35-1.89 2.72-0.565 0.816-1.13 1.63-1.71 2.47-1.49 2.04-1.49 2.04-3.49 4.04-4.11 0.621-7.94 0.346-11.9-0.938-3.91-3.8-4.97-8.36-5.27-13.7 0.0594-11.2 0.499-22.5 0.948-33.7 0.138-3.47 0.27-6.94 0.402-10.4 0.0875-2.23 0.175-4.46 0.264-6.69 0.0386-1.03 0.0772-2.05 0.117-3.11 0.665-16.2 0.665-16.2 3.04-20.1 2.38-1.38 2.38-1.38 5.75-1.44 4.33 1.27 6.51 2.81 9.62 6.06 2.08 4.92 2.57 9.81 3.06 15.1 0.677 7.01 0.677 7.01 1.94 13.9 9.38-7.26 20.1-18.9 22.9-30.8 1.19-3.44 1.5-3.87 4.44-5.62 6.03-2.9 13-3.92 19.4-1.69 4.45 3.97 7 8.46 7.72 14.4 0.0871 3.75 0.0334 7.46-0.0911 11.2-0.0226 1.29-0.0451 2.59-0.0684 3.92-0.0585 3.17-0.14 6.34-0.244 9.51 4.49-0.849 6.62-3.38 9.56-6.69 0.527-0.579 1.05-1.16 1.6-1.76 3.62-4.04 6.99-8.24 10.3-12.6 16.7-21.9 16.7-21.9 27.6-21z" fill="#ffffff"/>
<path transform="translate(1131 258)" d="m0 0c0.888 0.118 1.78 0.235 2.69 0.356 5.68 0.845 10.3 2.17 15 5.71 1.19 1.62 1.19 1.62 1.49 4.04 0.463 2.7 0.463 2.7 2.62 4.21 0.788 0.454 1.58 0.908 2.39 1.38 7.2 4.19 10 10.4 13.5 17.6 0.916 1.91 1.83 3.82 2.75 5.73 1.43 3 2.85 5.99 4.27 8.99 1.38 2.91 2.77 5.81 4.17 8.71 0.416 0.889 0.832 1.78 1.26 2.69 3.36 6.97 7.51 12.6 13.5 17.5 3.36 2.85 6.59 5.81 9.81 8.81 3.23 2.97 6.33 5.54 10.1 7.75 3.38 2.12 3.38 2.12 4.17 4.04 0.286 2.94-0.773 4.95-2.31 7.4-3.91 4.43-9.63 5.9-15.4 6.31-10.5-0.549-18.2-7.78-25-15.1-4.72-5.25-8.92-10.9-13.1-16.6-2.47-3.34-5.12-6.46-7.91-9.54-1.1-1.44-1.1-1.44-1.1-3.44-1.65-0.33-3.3-0.66-5-1-0.269 0.585-0.539 1.17-0.816 1.77-8.12 15.3-27.4 28.2-43.2 34.2-13.4 3.85-27.7 5.16-40.5-1.25-11.1-6.89-17.4-17.7-21.2-30-2.04-11.2 1.49-24.9 7.79-34.4 7-9.02 14.8-16.5 23.9-23.4 1.49-1.19 1.49-1.19 3.01-2.41 16.3-12.8 33.2-13 53.1-10.3zm-42.1 29.7c-0.632 0.476-1.26 0.951-1.91 1.44-4.58 3.7-8.32 8.06-12.1 12.6-0.721 0.798-1.44 1.6-2.18 2.42-3.88 4.46-7.03 8.19-7.18 14.3 0.948 5.94 3.69 10.7 8.05 14.8 9.58 4.34 17.3 3.62 27.3 0.5 15.4-5.9 26.6-17.8 33.6-32.5 4.61-11.6 4.61-11.6 4.36-23.5-26.4-0.305-26.4-0.305-50 10z" fill="#ffffff"/>
<path transform="translate(105 143)" d="m0 0c1.56-0.0735 1.56-0.0735 3.14-0.148 4.11 0.708 5.33 2.4 8.04 5.52 5.16 10.1 6.3 21.1 7.56 32.2 1.5 18.4 1.5 18.4 10.4 33.8 5.32 1.77 9.49 1.5 14.6-0.812 7.12-3.83 13.2-9.06 19.4-14.2 0.572-0.468 1.14-0.936 1.73-1.42 15.2-12.5 27.4-26.2 38-42.7 1.93-2.99 3.3-4.84 6.31-6.85 5.91-0.902 11.1-0.249 16.3 2.74 3.87 2.89 5.38 6.14 6.63 10.7 0.103 5.89-2.06 9.88-6.01 14.1-1.19 1.18-2.4 2.34-3.61 3.5-0.587 0.577-1.17 1.16-1.78 1.75-3.71 3.62-7.57 7.05-11.5 10.4-3.56 3.14-6.98 6.41-10.4 9.68-1.5 1.42-3.01 2.84-4.52 4.25-2.31 2.17-4.61 4.34-6.91 6.52-5.3 4.91-10.9 9.17-16.8 13.4-4.23 3.05-8.2 6.24-12 9.82-1.42 1.14-1.42 1.14-3.42 1.14-0.0146 0.763-0.0292 1.53-0.0442 2.31-0.516 24.3-3.13 46.5-9.39 70.1-0.361 1.37-0.361 1.37-0.73 2.76-0.702 2.63-1.42 5.26-2.14 7.89-0.21 0.786-0.421 1.57-0.638 2.38-1.87 6.65-4.25 14.4-10.1 18.6-2.43 0.355-2.43 0.355-5 0-1.73-1.79-1.73-1.79-3.19-4.19-0.489-0.777-0.977-1.55-1.48-2.36-6.39-11.8-3.62-24.3-0.332-36.6 3.93-15 6.52-32.5-1-46.8-1.82-2.99-3.99-5.25-6.82-7.35-14.9-11.4-19.4-35-21.9-52.6-0.534-4.41-0.71-8.85-0.932-13.3-0.347-4.13-1.05-8.09-1.88-12.1-1.13-5.66-2.11-10.9-1.44-16.6 3.4-4.54 6.32-5.2 11.8-5.38z" fill="#ffffff"/>
<path transform="translate(355 239)" d="m0 0c12 10.6 20.6 21.5 22.5 37.9 0.371 11.5-3.78 18.6-11.3 27-0.755 0.849-1.51 1.7-2.29 2.57-15.3 16.3-38.5 24.5-60.7 25.4-0.735 0.04-1.47 0.0799-2.23 0.121-16.8 0.478-38.3-2.15-51.8-13.1-6.83-6.48-12.8-20-13.1-29.3 0.00691-1.36 0.0189-2.72 0.0352-4.08 0.00568-1.08 0.00568-1.08 0.0115-2.19 0.0163-3.08 0.0445-6.17 0.0715-9.25 0.0181-2.25 0.0302-4.5 0.042-6.75 0.0083-0.697 0.0166-1.39 0.0251-2.11 0.0155-3.06-0.112-5.37-1.09-8.29-0.273-5.46-0.186-9.88 2-15 2.61-2.26 5.52-3.78 8.56-5.38 0.847-0.464 1.69-0.928 2.57-1.41 1.75-0.956 3.51-1.9 5.28-2.84 2.44-1.3 4.86-2.63 7.28-3.98 7.2-3.98 14.2-7.73 22.3-9.4 1.09-0.227 2.19-0.454 3.31-0.688 24.8-2.11 49.2 4.87 68.5 20.8zm-76.8 16.9c-1.45 1.14-1.45 1.14-2.93 2.3-8.54 6.74-12.7 11.8-14.1 22.7-0.718 6.58 0.0711 11.6 4 17 5.69 6.42 12.6 10.4 21.2 11.4 3.51 0.155 6.98 0.173 10.5 0.118 1.24-0.0128 2.48-0.0256 3.76-0.0388 15.9-0.351 33.2-4.48 45.2-15.9 5-5.68 8.27-11.9 8.39-19.6-1.68-7.65-8.55-14-14.8-18.2-22.5-14.1-40-17.6-61.2 0.21z" fill="#ffffff"/>
<path transform="translate(705,866)" d="m0 0c3 2 3 2 5 5 1.11 7.81-2.14 12.9-5.88 19.6-4.37 8.08-8.5 16.2-12.2 24.6-4.57 10.3-9.85 20.1-15.4 30-2.81 5.05-5.57 10.1-8.33 15.2-1.02 1.86-2.03 3.72-3.05 5.59-0.64 1.17-0.64 1.17-1.29 2.37-0.451 0.827-0.451 0.827-0.911 1.67 2.76 0 6.84-4.5 9.08-6.27 7.43-5.81 7.43-5.81 12.5-5.54 3.33 0.788 4.49 1.11 6.44 3.81 1.64 3.28 1.63 6.47 1 10-4.73 7.52-12.8 12.1-20 17-9.32 6.38-18.4 13-27.4 19.8-1.5 1.11-3.05 2.15-4.6 3.19 33.1-7.84 64.2-19.9 95.4-33.3 35-15 35-15 45.6-13.7 3.58 1.94 4.7 3.06 5.94 6.94 0.0694 3.4-0.236 5.12-1.94 8.06-3.88 3.71-7.79 5.07-12.9 6.38-7.56 2.09-14.7 4.69-22 7.73-2.41 1-4.82 1.98-7.24 2.96-11 4.45-11 4.45-21.9 9.16-31.3 14-64.5 22.7-98 29.3-0.909 0.178-1.82 0.356-2.75 0.54-2.59 0.504-5.19 1-7.78 1.49-0.776 0.15-1.55 0.299-2.35 0.453-7.46 1.39-7.46 1.39-11.1 1.02-3.43-2.57-4.79-4.33-6.06-8.44 0.117-6.68 5.35-11.1 9.75-15.8 4.66-4.95 9.06-10 13.3-15.4 1.73-2.12 3.52-4.14 5.38-6.15 4.98-5.63 9.01-12 13.2-18.2 1.34-1.96 2.7-3.88 4.09-5.8 8.48-11.8 15.4-24.5 22.3-37.3 0.76-1.38 1.52-2.75 2.28-4.13 3.89-7.14 7.43-14.4 10.9-21.7 4.12-8.69 8.36-17.3 12.8-25.9 0.815-1.62 0.815-1.62 1.65-3.27 0.517-1 1.03-2 1.57-3.03 0.454-0.885 0.907-1.77 1.37-2.68 3.33-5.14 7.49-6.5 13.5-5.27zm-75 147c-0.66 0.66-1.32 1.32-2 2h4c-0.66-0.66-1.32-1.32-2-2z" fill="#ffffff"/>
<path transform="translate(414,229)" d="m0 0c9.89 1.94 9.89 1.94 12.8 4.71 2.64 5.02 1.91 10.8 1.21 16.3-1.3 3.7-2.86 7.15-4.53 10.7-2.08 4.71-2.97 9.22-3.47 14.3-0.0825 0.842-0.165 1.68-0.25 2.55-0.469 9.43 3.24 17.4 9.22 24.5 6.67 6.28 16.2 7.16 25 6.91 11.4-1.59 21.9-9.19 29-18 4.22-5.85 8.17-11.9 12-18 0.394-0.618 0.789-1.24 1.2-1.87 2.42-3.97 3.52-7.5 4.3-12.1 1.39-7.08 3.19-14.7 9.5-19.1 3.54-0.668 5.8-0.726 8.94 1.18 4.73 3.81 6.75 7.02 7.43 13.2 0.14 7.81-0.638 13.9-4.18 21-3.84 8.64-3.59 21.4-1.21 30.4 1.23 3.16 2.57 6.22 4.02 9.29 4.9 11.1 4.9 11.1 4 17-1.62 3.44-1.62 3.44-4 6-6.93 0.79-12.3-2.34-18-6-4.72-4.47-7.18-9.83-9-16-0.0428-1.67-0.0518-3.33 0-5-0.606 0.496-1.21 0.993-1.84 1.5-2.7 2.19-5.43 4.35-8.16 6.5-0.78 0.62-1.56 1.24-2.36 1.88-14.4 10.8-32.8 15.7-50.6 14.1-13-2.84-26.7-14.7-34.4-25.3-6.15-10.3-7.22-20.3-7-32.1 0.00292-1.35 0.00423-2.7 0.00391-4.04 0.093-10.3 0.093-10.3 2.37-15.5 0.347-2.61 0.634-5.19 0.875-7.81 0.866-7.88 2.56-12.9 7.44-19.2 3.61-2.69 5.23-2.58 9.69-2z" fill="#ffffff"/>
<path transform="translate(650 238)" d="m0 0c1.28 1.02 2.57 2.05 3.85 3.07 1.1 0.857 2.19 1.71 3.29 2.57 12.3 9.77 12.3 9.77 13.1 14.7 0.135 4.2 0.0284 6.16-2.36 9.74-10.2 1.1-18.7-2.97-27.1-8.5-8.65-5.69-16.3-8.89-26.8-9.31-0.78-0.0335-1.56-0.067-2.36-0.102-12.3-0.387-12.3-0.387-23.1 4.85-4.42 4.4-7.63 9.66-10.7 15.1-0.382 0.632-0.763 1.26-1.16 1.91-3.58 8.84-1.96 21.8-2.03 31.1-0.0131 1.07-0.0261 2.14-0.0396 3.24-0.00625 5.68 0.4 10.3 2.23 15.7 1.26 6.15-0.525 10.9-3.25 16.4-0.3 0.607-0.599 1.21-0.908 1.84-1.8 3.42-3.43 5.9-6.84 7.78-5.01 0-8.47-1.34-12.4-4.33-3.02-3.07-4.81-6.81-6.64-10.7-0.33-0.66-0.66-1.32-1-2-0.11-2.53-0.156-5.03-0.145-7.57 0.00235-0.758 0.0047-1.52 0.00713-2.3 0.074-8.06 0.694-16.1 1.45-24.1 0.0679-0.738 0.136-1.48 0.206-2.23 2.4-26 6.16-47.4 26.6-65.7 22.3-17.7 56.2-6.84 76.1 8.79z" fill="#ffffff"/>
<path transform="translate(1483 270)" d="m0 0c7.28 5.87 12.7 14.1 13.8 23.5 0.973 11.7-1.63 20.1-8.82 29.5-9.21 10.8-18.5 14-32.2 16.5-0.886 0.186-1.77 0.371-2.68 0.562-14.4 2.73-28.5-3.65-40.2-11.5-2.39-1.66-4.76-3.34-7.1-5.06 2.49-0.687 4.38-1 7-1v-1h6c0.33 2.64 0.66 5.28 1 8 5.89 2.85 10.8 2.52 16.9 0.5 1.36-0.49 2.71-0.986 4.06-1.5-0.0838-0.638-0.168-1.28-0.254-1.93-0.153-1.24-0.153-1.24-0.309-2.5-0.104-0.824-0.209-1.65-0.316-2.5-0.0599-1.02-0.0599-1.02-0.121-2.07 0.33-0.33 0.66-0.66 1-1-3.96-0.66-7.92-1.32-12-2v2c-3.47 0-6.8-0.2-10.2-0.5-1.62-0.139-1.62-0.139-3.27-0.281-0.82-0.0722-1.64-0.144-2.48-0.219v-2c-0.99-0.33-1.98-0.66-3-1-0.66-0.33-1.32-0.66-2-1v-2h-7c0.33-1.65 0.66-3.3 1-5h2v-2h2c0.0825-1.11 0.165-2.23 0.25-3.38 0.247-1.2 0.495-2.39 0.75-3.62 1.88-1.12 1.88-1.12 4-2 1.75-2.53 1.75-2.53 3-5h-2v-3c0.66-0.33 1.32-0.66 2-1 0.33-0.99 0.66-1.98 1-3 0.66-0.33 1.32-0.66 2-1-0.33-0.66-0.66-1.32-1-2h6c-0.464-1.08-0.464-1.08-0.938-2.19-0.988-2.62-1.59-5.06-2.06-7.81 20.3-12.4 44.1-14.5 64.2-0.473zm-69.2 36.5v1c0.811 0.182 1.62 0.364 2.46 0.551 1.11 0.251 2.21 0.503 3.36 0.762 1.79 0.406 1.79 0.406 3.62 0.82 3.02 0.735 5.92 1.61 8.88 2.55 9.43 2.56 19.3 2.92 28.3-1.25 4.62-2.68 8.93-5.56 11.4-10.4 0.424-3.21 0.424-3.21-1-6-5.73-5.2-12.9-8.36-20.6-9.56-14.7 2.4-26.2 11.3-36.4 21.6z" fill="#ffffff"/>
<path transform="translate(1e3 257)" d="m0 0c6.15 2.11 9.92 5.12 13 10.9 6.98 14.5 7.44 30.8 8.36 46.5 0.413 5.97 1.56 11.8 2.69 17.6 3.19 16.7 3.19 16.7 1.94 22.9-1.29 1.77-1.29 1.77-3 3-3.88 0.581-6.39 0.813-9.9-0.961-10.1-7.65-12.2-22.3-14.1-34-0.713-5.36-1.35-10.7-1.87-16.1-0.105-0.981-0.21-1.96-0.318-2.97-0.0845-0.875-0.169-1.75-0.256-2.65-0.635-2.6-1.52-3.58-3.55-5.26-4.43 2.81-8.35 5.91-12.2 9.5-0.563 0.525-1.13 1.05-1.71 1.59-9.08 8.57-17 17.9-24.7 27.8-9.78 12.6-9.78 12.6-15.4 13.4-3.3 0.155-5.77-0.165-8.9-1.28-3.24-2.96-4.53-5.75-5.19-10-0.0607-5.35 0.464-10.7 1-16 1.32 0.33 2.64 0.66 4 1v10c1.27-0.217 1.27-0.217 2.56-0.438 2.36-0.387 4.74-0.695 7.12-0.938 3.57-0.674 3.95-1.16 6.31-3.62 3.19-0.688 3.19-0.688 6-1 0.227-0.887 0.454-1.77 0.688-2.69 1.69-4.27 4.16-7.24 8.31-9.31v-6c-0.99 0.33-1.98 0.66-3 1-2.25-0.408-3.96-0.978-6-2-0.5-3.06-0.5-3.06 0-7 1.73-1.93 3.64-3.41 5.67-5.01 3.43-2.93 6.05-6.38 8.85-9.89 23.2-28.9 23.2-28.9 33.5-28.1z" fill="#ffffff"/>
<path transform="translate(280,223)" d="m0 0c2.31-0.328 2.31-0.328 5-0.25 1.33 0.0232 1.33 0.0232 2.69 0.0469 2.31 0.203 2.31 0.203 4.31 1.2v2h2v2h-2c-0.186 0.959-0.186 0.959-0.375 1.94-0.206 0.681-0.413 1.36-0.625 2.06-0.66 0.33-1.32 0.66-2 1-0.495-1.49-0.495-1.49-1-3h-4v-2c-1.65 0.33-3.3 0.66-5 1h3c-0.33 1.32-0.66 2.64-1 4 0.99 0.66 1.98 1.32 3 2 0.188 2.62 0.188 2.62 0 5-0.99 0.33-1.98 0.66-3 1-0.66-0.33-1.32-0.66-2-1v-3c-2.31-0.33-4.62-0.66-7-1-0.767 2.85-0.767 2.85-1 6 1.31 1.9 1.31 1.9 3 3 0.66-0.33 1.32-0.66 2-1 1 3 1 3 0 6-3.3 0.66-6.6 1.32-10 2-0.33 1.98-0.66 3.96-1 6 0.66 0.33 1.32 0.66 2 1-0.33 0.99-0.66 1.98-1 3h-2v5c-1.98 0.495-1.98 0.495-4 1-0.797 7.36-1.13 14.6-1 22h3c0.516 1.2 1.03 2.39 1.56 3.62 3.74 7.34 9.8 11.4 17.4 14.4 8.51 2.45 18.1 1.79 26.9 1.84 2.22 0.126 2.22 0.126 3.22 1.13 1.45-0.256 2.89-0.58 4.31-0.938 3.13-0.781 5.39-1.06 8.69-1.06 0.133 4.66-0.529 8.59-2 13h-2v2c-2.79 0.929-4.22 1.06-7.06 0.938-3.94-0.394-3.94-0.394-5.94 2.06v-2c-0.557 0.227-1.11 0.454-1.69 0.688-3.23 0.437-4.63-0.968-7.31-2.69h-3v-2c1.98-0.495 1.98-0.495 4-1-6.67-1.64-13.2-2.51-20-3v-2h-4v-2h-5c0.114 1.48 0.241 2.96 0.375 4.44 0.104 1.24 0.104 1.24 0.211 2.5 0.205 1.02 0.205 1.02 0.414 2.07 0.99 0.495 0.99 0.495 2 1 0.33 0.66 0.66 1.32 1 2-3 1-3 1-4.75 0.188-0.743-0.392-1.49-0.784-2.25-1.19-2.33-0.683-4.66-1.35-7-2-0.66-0.33-1.32-0.66-2-1v-3c-0.99 0.495-0.99 0.495-2 1-3.25 0.562-3.25 0.562-7 0-7.22-5.74-10.2-17.6-13-26-0.0729-2.48-0.092-4.93-0.0625-7.41 0.00568-1.08 0.00568-1.08 0.0115-2.19 0.0163-3.08 0.0445-6.17 0.0715-9.25 0.0181-2.25 0.0302-4.5 0.042-6.75 0.0083-0.697 0.0166-1.39 0.0251-2.11 0.0155-3.06-0.112-5.37-1.09-8.29-0.273-5.46-0.2-9.88 2-15 2.69-2.29 5.69-3.87 8.81-5.5 0.854-0.466 1.71-0.931 2.59-1.41 1.72-0.936 3.45-1.86 5.17-2.78 2.17-1.17 4.29-2.38 6.4-3.64 1.12-0.654 2.25-1.31 3.4-1.98 0.977-0.574 1.95-1.15 2.96-1.74 2.66-0.949 2.66-0.949 5.27-0.117 0.791 0.385 1.58 0.771 2.4 1.17h4c0.66-0.99 1.32-1.98 2-3z" fill="#ffffff"/>
<path transform="translate(224,148)" d="m0 0c4.53 1.36 7.34 3.24 10.4 6.81 2.38 4.85 3.19 8.27 1.48 13.5-2 4.41-5.14 7.41-8.61 10.7-0.587 0.577-1.17 1.16-1.78 1.75-3.71 3.62-7.57 7.05-11.5 10.4-3.56 3.14-6.98 6.41-10.4 9.68-1.5 1.42-3.01 2.84-4.52 4.25-2.31 2.17-4.61 4.34-6.91 6.52-5.3 4.91-10.9 9.17-16.8 13.4-4.23 3.05-8.2 6.24-12 9.82-1.42 1.14-1.42 1.14-3.42 1.14-0.33 7.92-0.66 15.8-1 24h-3c-1.85-4.5-2.16-8.17-1.97-12.9 0.0737-2.25 0.0737-2.25-1.03-5.05-0.357-5.42 0.0912-10.7 1-16 0.763-0.227 1.53-0.454 2.31-0.688 3.27-1.6 3.96-3.18 5.69-6.31 1.49-0.99 1.49-0.99 3-2 0.736-3.57 0.736-3.57 1-7h4v-2c-0.66-0.33-1.32-0.66-2-1 1.98-0.495 1.98-0.495 4-1 0.33 0.66 0.66 1.32 1 2h-2v2h3v-6c0.969-0.248 1.94-0.495 2.94-0.75 1.01-0.412 2.02-0.825 3.06-1.25 0.969-2.03 0.969-2.03 1-4-1.32-0.33-2.64-0.66-4-1v-2c-1.98 0.495-1.98 0.495-4 1 2.64-2.65 5.29-5.28 7.98-7.88 10.4-10.1 18.9-21 26.7-33.3 4.53-7.01 8.36-7.79 16.3-6.85z" fill="#ffffff"/>
<path transform="translate(781,965)" d="m0 0c3.58 1.94 4.7 3.06 5.94 6.94 0.0694 3.4-0.236 5.12-1.94 8.06-3.88 3.71-7.79 5.07-12.9 6.38-7.56 2.09-14.7 4.69-22 7.73-2.41 1-4.82 1.98-7.24 2.96-11 4.45-11 4.45-21.9 9.16-25.5 11.4-54.2 21.5-82 25.8-0.33-1.32-0.66-2.64-1-4 0.99-0.66 1.98-1.32 3-2-0.33-0.66-0.66-1.32-1-2 1.98 0.33 3.96 0.66 6 1v-2h5c-1.65-0.33-3.3-0.66-5-1l2-2c1.05 0.0412 2.1 0.0825 3.19 0.125 4.02-0.132 5.61-1.1 8.91-3.24 2.98-1.39 5.76-1.14 8.98-0.93 2 0.194 2 0.194 3.92-0.957 0.99 0.33 1.98 0.66 3 1v-4h3v-2h6v-6c-8.36 1.54-16.5 3.68-24.7 5.96-5.27 1.42-9.84 2.39-15.3 2.04 3.07-2.05 5.24-2.72 8.79-3.63 1.17-0.308 2.35-0.616 3.56-0.933 1.27-0.33 2.53-0.661 3.83-1 25.6-6.84 49.9-17.3 74.2-27.7 35-15 35-15 45.6-13.7z" fill="#ffffff"/>
<path transform="translate(1131 258)" d="m0 0c0.888 0.118 1.78 0.235 2.69 0.356 5.68 0.845 10.3 2.17 15 5.71 1.19 1.62 1.19 1.62 1.56 4.06 0.856 3.51 2.73 4.56 5.62 6.56-0.33 0.66-0.66 1.32-1 2-4.69 1.08-7.69 1.22-12-1-0.33 1.32-0.66 2.64-1 4-0.786-0.17-1.57-0.34-2.38-0.516-16.1-2.16-37.4-0.434-50.6 9.52-1.05 0.784-2.1 1.57-3.19 2.38-3.57 3.33-6.68 6.89-9.81 10.6-0.71 0.788-1.42 1.58-2.15 2.39-4.9 5.64-7.21 10.1-7.85 17.6h-2c-0.121-0.855-0.242-1.71-0.367-2.59-0.168-1.1-0.335-2.21-0.508-3.35-0.244-1.65-0.244-1.65-0.492-3.34-0.209-0.898-0.418-1.8-0.633-2.72-0.66-0.33-1.32-0.66-2-1 0.99-0.66 1.98-1.32 3-2 0.281-2.81 0.267-4.47-1-7 0.00868-2.57 0.131-5.12 0.258-7.69-0.0851-0.763-0.17-1.53-0.258-2.31-0.99-0.66-1.98-1.32-3-2-0.99 0.66-1.98 1.32-3 2 1.63-4.3 4.88-7.03 8.19-10.1 0.617-0.567 1.23-1.13 1.87-1.72 20.3-18.3 37.8-23.6 65.1-19.9z" fill="#ffffff"/>
<path transform="translate(833,263)" d="m0 0c5.56 5.67 5.98 12.8 6.56 20.3 0.773 8.18 1.76 16.1 3.62 24.1 1.5 6.66 2.44 12.7 1.81 19.6-0.106 1.29-0.211 2.58-0.32 3.9-1.63 17.1-1.63 17.1-6.68 22.1-4.28 0.356-6.9 0.55-10.8-1.38-5.74-6.69-6.91-15-7.44-23.6-0.0733-1.01-0.147-2.02-0.222-3.05-0.213-3-0.402-6-0.59-9.01-0.112-1.55-0.226-3.11-0.34-4.66-0.327-4.78-0.515-9.55-0.66-14.3-0.0393-1.21-0.0786-2.43-0.119-3.68-0.103-3.4-0.171-6.8-0.221-10.2-0.0232-1.36-0.0547-2.72-0.0948-4.08-0.054-1.92-0.0719-3.83-0.0886-5.75-0.0297-1.67-0.0297-1.67-0.0601-3.38 0.583-2.91 0.583-2.91 2.93-5.24 4.54-2.86 7.5-3.18 12.7-1.67z" fill="#ffffff"/>
<path transform="translate(565,239)" d="m0 0h2c0.33 2.31 0.66 4.62 1 7 1.32 0.33 2.64 0.66 4 1v2c1.98-0.33 3.96-0.66 6-1 0.33-0.99 0.66-1.98 1-3h2c0.33-0.66 0.66-1.32 1-2h5c-0.33 0.66-0.66 1.32-1 2h-2c0.495 1.49 0.495 1.49 1 3-0.777 2.04-0.777 2.04-1.94 4.19-0.57 1.07-0.57 1.07-1.15 2.17-0.3 0.543-0.601 1.09-0.91 1.64h-5v2c-3.38 0.125-3.38 0.125-7 0-0.66-0.66-1.32-1.32-2-2h-1c0.309 1.63 0.622 3.25 0.938 4.88 0.174 0.905 0.348 1.81 0.527 2.74 0.435 2.38 0.435 2.38 1.54 4.38-0.0865 1.55-0.24 3.09-0.438 4.62-0.102 0.817-0.204 1.63-0.309 2.48-0.126 0.94-0.126 0.94-0.254 1.9h2c-0.0412 1.13-0.0825 2.27-0.125 3.44-0.0217 4.07 0.725 7.67 1.79 11.6 0.34 1.98 0.34 1.98-0.66 4.98-0.326 6.39-0.0827 12.7 0.781 19.1 0.299 2.65 0.219 5.28 0.219 7.94h-10v3c1.49 0.495 1.49 0.495 3 1-2.97 0.99-2.97 0.99-6 2v9h-2v-2c-1.49 0.495-1.49 0.495-3 1-1.94-1.19-1.94-1.19-4-3-0.696-0.539-1.39-1.08-2.11-1.63-2.6-3.25-2.38-6.08-2.22-10.1 0.0159-0.749 0.0318-1.5 0.0481-2.27 0.215-8.01 0.844-16 1.6-24 0.0679-0.738 0.136-1.48 0.206-2.23 3.91-42.3 3.91-42.3 17.5-55.8z" fill="#ffffff"/>
<path transform="translate(705,866)" d="m0 0c3 2 3 2 5 5 1.11 7.81-2.14 12.9-5.88 19.6-4.37 8.08-8.5 16.2-12.2 24.6-4.58 10.3-9.87 20.2-15.4 30.1-2.12 3.79-4.21 7.6-6.29 11.4-2.08 3.79-4.16 7.57-6.24 11.3-1.65-0.33-3.3-0.66-5-1v-4h-2c-2-5.62-2-5.62-2-9 0.969-0.247 1.94-0.495 2.94-0.75 1.01-0.413 2.02-0.825 3.06-1.25 0.969-2.03 0.969-2.03 1-4 2.48-0.495 2.48-0.495 5-1-0.33-2.31-0.66-4.62-1-7h-3c-1.81-1.62-1.81-1.62-3-4 1.23-4.86 3.54-9.08 5.94-13.4 3.7-6.84 7.12-13.8 10.4-20.8 3.74-7.89 7.56-15.7 11.6-23.5 0.448-0.887 0.897-1.77 1.36-2.69 0.427-0.82 0.854-1.64 1.29-2.48 0.37-0.718 0.74-1.44 1.12-2.17 3.32-4.9 7.57-6.08 13.3-4.9z" fill="#ffffff"/>
<path transform="translate(1312 277)" d="m0 0c4.22 3.02 7.11 5.36 8.37 10.6 0.296 4.59-0.379 8.5-1.75 12.9-0.495 0.495-0.495 0.495-1 1-5.25-0.14-10.4-1.05-15.6-2.06-11.4-2.09-20.2-0.48-30.1 5.88-8.61 5.83-8.61 5.83-14.3 14.2 0.348 2.85 1.09 5.27 2 8h-3v-2h-2c-1.2-2.41-1.1-3.95-1.06-6.62 0.00902-0.817 0.018-1.63 0.0273-2.48 0.0116-0.626 0.0232-1.25 0.0352-1.9h-3v-7c1.48-0.495 1.48-0.495 3-1v-3-3h-2c0.33-2.31 0.66-4.62 1-7h2v-4-2c3.44-1.72 7.36-1.4 11.2-1.62 3.04-0.193 3.04-0.193 5.85-2.38h4v-2c3.46-0.495 3.46-0.495 7-1-0.66-0.33-1.32-0.66-2-1v-2c2.65-1.46 3.89-2 7-2v-2c-5.94 0.495-5.94 0.495-12 1 10.2-6.8 26.6-3.64 36.4 2.5z" fill="#ffffff"/>
<path transform="translate(794 869)" d="m0 0c4.79 2.78 4.79 2.78 6.69 5.56 0.739 4.03 0.979 6.38-1.15 9.91-1.83 2.18-3.78 4.13-5.85 6.09-0.908 0.869-1.82 1.74-2.75 2.63-5.68 5.35-11.6 10.4-17.7 15.3-2.38 1.95-4.67 3.97-6.95 6.05-3.72 3.35-7.6 6.45-11.6 9.5-0.568 0.438-1.14 0.875-1.72 1.33-4.37 3.33-6.73 4.9-12.3 4.24-3.53-2.59-4.8-4.28-6-8.5 0-5.14 2.01-7.5 5.57-11.1 0.992-0.907 1.99-1.81 3-2.7 0.533-0.481 1.07-0.963 1.62-1.46 3.96-3.54 8.07-6.86 12.3-10.1 3-2.45 5.85-5.03 8.7-7.66 0.506-0.468 1.01-0.935 1.53-1.42 0.495-0.458 0.989-0.916 1.5-1.39 2.47-2.29 4.96-4.57 7.47-6.82 0.611-0.55 1.22-1.1 1.85-1.67 1.52-1.14 1.52-1.14 3.52-1.14v-2c7.79-5.16 7.79-5.16 12.3-4.56z" fill="#ffffff"/>
<path transform="translate(880,761)" d="m0 0c4.24 2.44 4.24 2.44 6 5 1.12 8.38-1.91 14.1-5.75 21.4-0.585 1.14-1.17 2.28-1.77 3.46-7.55 14.4-17 32.4-30.5 42.1-3.71 0.619-5.46 0.275-8.81-1.44-2.65-3.11-3.3-5.13-3.49-9.17 0.595-4.67 3.48-7.76 6.3-11.4 7.91-10.4 14.3-20.9 19.9-32.7 8.84-18.6 8.84-18.6 18.1-17.3z" fill="#ffffff"/>
<path transform="translate(370,278)" d="m0 0 2 2c-0.33 0.99-0.66 1.98-1 3h5c1.28 2.55 0.875 3.31 0.0625 6-2.13 5.99-5.85 10.3-10.1 15-0.755 0.849-1.51 1.7-2.29 2.57-15.3 16.3-38.5 24.5-60.7 25.4-1.1 0.0599-1.1 0.0599-2.23 0.121-16.3 0.463-36.5-1.96-49.8-12.1v-1c2.64-0.66 5.28-1.32 8-2 0.33 0.66 0.66 1.32 1 2h-2v2c0.888 0.182 0.888 0.182 1.79 0.367 4.25 0.9 8.23 1.84 12.2 3.63-0.33-0.866-0.66-1.73-1-2.62-0.987-3.33-1.16-5.93-1-9.38h5v2h4v2c0.762-0.0232 1.52-0.0464 2.31-0.0703 6.6-0.115 12.3 0.37 18.7 2.07-0.495 0.99-0.495 0.99-1 2h-4c0.66 0.66 1.32 1.32 2 2 0.66-0.33 1.32-0.66 2-1 0.33 0.66 0.66 1.32 1 2 5.14 1.16 5.14 1.16 10 0 1.71-0.07 3.42-0.0844 5.12-0.0625 0.91 0.00902 1.82 0.018 2.76 0.0273 0.699 0.0116 1.4 0.0232 2.12 0.0352v-2h2v-8h2v-5c-4.62 0.99-9.24 1.98-14 3v-2h-25v-1c0.709-0.00935 1.42-0.0187 2.15-0.0283 19.8-0.317 19.8-0.317 38.9-4.97 0.883-0.307 1.77-0.614 2.68-0.93 1.79-0.649 3.56-1.35 5.32-2.07v2c-1.24 1.18-1.24 1.18-2.5 2.38-2.96 2.5-2.96 2.5-2.5 6.62 1.24-0.186 2.48-0.371 3.75-0.562 3.01-0.385 5.35-0.525 8.25 0.562 0.413-0.66 0.825-1.32 1.25-2 0.866-0.99 0.866-0.99 1.75-2h4c0.99-2.48 0.99-2.48 2-5h3c0.17-0.554 0.34-1.11 0.516-1.68 1.98-5.93 1.98-5.93 4.48-7.88 2-0.438 2-0.438 5 0.562v-3h2c0.0258-0.603 0.0516-1.21 0.0781-1.83 0.469-6.61 0.469-6.61 2.98-9.73 0.639-0.474 1.28-0.949 1.94-1.44z" fill="#ffffff"/>
<path transform="translate(913,627)" d="m0 0c2.88 1.94 2.88 1.94 5 5 0.692 9.03-0.97 17.9-2.34 26.8-0.4 2.6-0.787 5.2-1.17 7.8-0.772 5.14-1.61 10.3-2.48 15.4-0.225 1.32-0.225 1.32-0.454 2.67-0.454 2.61-0.94 5.2-1.44 7.8-0.136 0.785-0.272 1.57-0.413 2.38-1.02 5.07-2.46 7.87-6.7 11.1-4.27 0.686-6.21 0.5-9.88-1.81-2.12-2.19-2.12-2.19-3.12-5.19 0.132-8.85 1.66-17.5 3.31-26.2 1.38-7.4 2.72-14.8 3.77-22.2 0.167-1.18 0.334-2.36 0.507-3.57 0.312-2.25 0.611-4.49 0.895-6.74 1.34-9.54 1.34-9.54 5.52-13.3 3.62-1.21 5.33-1.03 9 0z" fill="#ffffff"/>
<path transform="translate(926,488)" d="m0 0c2.44 1.94 2.44 1.94 4 5 0.88 8.47-0.556 17.2-1.38 25.7-0.28 2.94-0.558 5.87-0.836 8.81-0.069 0.725-0.138 1.45-0.209 2.2-0.42 4.45-0.791 8.91-1.12 13.4-0.0794 1.05-0.159 2.09-0.241 3.17-0.142 1.91-0.276 3.82-0.397 5.74-0.382 4.97-1.05 8.74-3.82 13-3.74 2.49-5.57 2.46-10 2-3.39-2.14-4.73-3.18-6-7-0.412-6.89 0.199-13.8 0.805-20.7 0.084-0.981 0.168-1.96 0.255-2.97 0.178-2.06 0.358-4.12 0.54-6.18 0.275-3.12 0.539-6.24 0.803-9.37 0.175-2.02 0.351-4.03 0.527-6.04 0.0772-0.918 0.154-1.84 0.234-2.78 1.65-18.4 1.65-18.4 5.34-22.1 4.24-3.18 6.28-3.13 11.5-1.88z" fill="#ffffff"/>
<path transform="translate(312 219)" d="m0 0c0.735 0.126 1.47 0.252 2.23 0.382 3.46 0.646 5.69 1.27 8.65 3.24h-10c-0.382 1.66-0.714 3.32-1 5 1.89 1.89 4.57 1.35 7.09 1.52 1.91 0.477 1.91 0.477 3.91 3.48-0.33 0.99-0.66 1.98-1 3h7v2h-2v3c0.66 0.33 1.32 0.66 2 1-0.227 0.598-0.454 1.2-0.688 1.81-0.569 2.21-0.569 2.21 0.812 3.81 1.88 1.52 1.88 1.52 4.5 2.31 1.18 0.526 1.18 0.526 2.38 1.06 0.648 2.07 0.648 2.07 1 4-0.534-0.262-1.07-0.524-1.62-0.794-2.46-1.2-4.92-2.39-7.38-3.58-0.839-0.412-1.68-0.825-2.54-1.25-9.39-4.51-19.7-7.83-30.1-4.54-6.53 3.05-11.9 7.55-17.4 12.2-0.98 0.772-1.96 1.54-2.97 2.34-1.47 1.16-1.47 1.16-2.97 2.35-0.896 0.705-1.79 1.41-2.71 2.14-5.36 4.96-6.09 10-7.04 17-0.13 0.884-0.259 1.77-0.393 2.68-0.317 2.17-0.623 4.34-0.92 6.51h-2c-1.72-17.2-1.72-17.2 1-22 2.12-0.812 2.12-0.812 4-1v-5h2c-0.882-2.88-0.882-2.88-2-5 0.281-2.01 0.611-4.01 1-6 3.67-1.18 7.17-1.07 11-1-0.348-1.98-0.348-1.98-1-4-0.66-0.33-1.32-0.66-2-1v-2c-0.99-0.33-1.98-0.66-3-1 0.66-1.98 1.32-3.96 2-6 2.31 0.33 4.62 0.66 7 1v3h4v-5c-1.98-0.33-3.96-0.66-6-1 1.32-0.33 2.64-0.66 4-1v-3c-0.66 0.66-1.32 1.32-2 2-0.33-0.99-0.66-1.98-1-3 1-1 1-1 3.56-1.06 0.804 0.0206 1.61 0.0412 2.44 0.0625v2c1.65-0.33 3.3-0.66 5-1 0.33 0.99 0.66 1.98 1 3 0.66-1.32 1.32-2.64 2-4h2v-2h-2v-2c-1.96-0.0808-3.92-0.139-5.88-0.188-1.09-0.0348-2.18-0.0696-3.3-0.105-1.4 0.145-1.4 0.145-2.82 0.293-0.99 1.49-0.99 1.49-2 3-2.97-0.495-2.97-0.495-6-1-0.33-0.99-0.66-1.98-1-3 14-4.96 26.4-6.18 41.1-3.62z" fill="#ffffff"/>
<path transform="translate(1468,264)" d="m0 0c7.23-0.51 11.4 2.73 17 7 5.82 5.29 10.6 11.8 11.2 19.8 0.0102 2.42-0.0571 4.8-0.238 7.21h-2v3c-5.75 3-5.75 3-8 3v5c-1.65 0.66-3.3 1.32-5 2-0.495-0.495-0.495-0.495-1-1-0.99 0.495-0.99 0.495-2 1-0.66-1.65-1.32-3.3-2-5-0.99 0.495-0.99 0.495-2 1-0.465 1.9-0.465 1.9-0.625 4.06-0.124 1.3-0.247 2.6-0.375 3.94-1.81 0.625-1.81 0.625-4 1-0.99-0.66-1.98-1.32-3-2h-4c0.656 3.61 0.656 3.61 2 7-0.495 0.495-0.495 0.495-1 1 0.278 0.959 0.278 0.959 0.562 1.94 0.144 0.681 0.289 1.36 0.438 2.06-0.66 0.66-1.32 1.32-2 2-2.73-0.0329-5.3-0.564-8-1v-6h2c-0.66-1.98-1.32-3.96-2-6 4.88-1 4.88-1 6-1 0.165-0.681 0.33-1.36 0.5-2.06 1.58-3.09 2.9-4.23 5.56-6.38 2.72-2.29 3.85-3.35 5.25-6.69-0.434-3.99-2.37-5.29-5.31-7.88v-2c-1.32-0.66-2.64-1.32-4-2v-2h2c-0.66-3.3-1.32-6.6-2-10-3.63 0.33-7.26 0.66-11 1-0.33-0.99-0.66-1.98-1-3 0.66-0.33 1.32-0.66 2-1 0.33-0.99 0.66-1.98 1-3h2c0.33-0.99 0.66-1.98 1-3 0.99 0.33 1.98 0.66 3 1 0.688 2.06 0.688 2.06 1 4 1.65-0.33 3.3-0.66 5-1v-3h2c0.33-0.99 0.66-1.98 1-3z" fill="#ffffff"/>
<path transform="translate(1510 378)" d="m0 0c1.31-0.0142 2.63-0.0284 3.98-0.043 3.27 0.23 3.27 0.23 5.27 2.23 0.72 5.98 1.31 12-2 17.1-6.08 3.8-11.9 6.41-18.9 7.81-0.764 0.157-1.53 0.314-2.31 0.476-1.68 0.344-3.36 0.685-5.04 1.02-2.85 0.595-5.69 1.26-8.52 1.93-18.2 4.16-36.8 6.03-55.2 1.64 0.637-0.286 1.27-0.572 1.93-0.867 2.89-1.58 3.12-3 4.07-6.13 0.71-2.66 1.36-5.32 2-8l6 3v2c0.811-0.168 1.62-0.335 2.46-0.508 7.73-1.42 13.9-1.47 21.5 0.508v2c2.52 1.26 4.31 1.1 7.12 1.06 1.37-0.0135 1.37-0.0135 2.76-0.0273 0.699-0.0116 1.4-0.0232 2.12-0.0352v-4h2v-3h2v3h4c0.495-1.49 0.495-1.49 1-3h2v3h2c0.0142-0.675 0.0284-1.35 0.043-2.05 0.393-7.35 0.393-7.35 3.39-10.6 2.56-1.38 2.56-1.38 4.56-1.38-0.495-0.99-0.495-0.99-1-2-5.99-0.285-10.3 0.239-15.8 2.33-3.16 0.981-5.87 0.878-9.15 0.668 2.81-1.51 5.46-2.49 8.55-3.25 0.862-0.215 1.72-0.429 2.61-0.65 0.893-0.217 1.79-0.434 2.71-0.658 0.886-0.221 1.77-0.442 2.68-0.67 7.15-1.76 13.8-2.92 21.2-2.96z" fill="#ffffff"/>
<path transform="translate(830 187)" d="m0 0c6.92 5.8 12.1 13.7 17.3 20.9 1.12 1.52 1.12 1.52 2.26 3.07 1.79 3.01 2.2 4.38 1.99 7.81-0.0361 0.781-0.0722 1.56-0.109 2.37-0.0464 0.58-0.0928 1.16-0.141 1.76-5.78 2.66-10.9 2.47-17 1-21.8-8.18-21.8-8.18-26.3-17.1-1.65-4.59-1.18-8.6 0.496-13.2 4.96-7.52 13.1-10 21.5-6.69z" fill="#ffffff"/>
<path transform="translate(983,292)" d="m0 0 2 1c-0.967 8.12-4.37 12.8-10.1 18.2-6.87 6.67-12.8 13.8-18.6 21.4-0.477 0.623-0.955 1.25-1.45 1.89-0.921 1.2-1.83 2.42-2.74 3.63-3.35 4.38-7.48 9.13-13.1 10.3-4.45 0.184-7.68-0.409-11-3.41-4.42-7.52-2.84-15.7-2-24 1.32 0.33 2.64 0.66 4 1v10c0.846-0.144 1.69-0.289 2.56-0.438 2.36-0.387 4.74-0.695 7.12-0.938 3.57-0.674 3.95-1.16 6.31-3.62 3.19-0.688 3.19-0.688 6-1 0.227-0.887 0.454-1.77 0.688-2.69 1.69-4.27 4.16-7.24 8.31-9.31v-6c-0.99 0.33-1.98 0.66-3 1-2.25-0.408-3.96-0.978-6-2-0.5-3.12-0.5-3.12 0-7 2.4-2.43 5.09-4.23 8-6v3c1.32 0.33 2.64 0.66 4 1-0.99 1.65-1.98 3.3-3 5h9c0.66-1.32 1.32-2.64 2-4 5.14-3 5.14-3 8-3v-3c0.99-0.33 1.98-0.66 3-1z" fill="#ffffff"/>
<path transform="translate(414,229)" d="m0 0c9.89 1.94 9.89 1.94 12.8 4.71 2.64 5.01 1.91 10.8 1.21 16.3-1.3 3.44-2.86 6.67-4.46 9.98-3.32 7.74-3.66 16.7-4.54 25h-2c-0.512-3.58-1.02-7.16-1.5-10.8-0.407-3.25-0.407-3.25-1.5-6.25 0.34-2.48 0.34-2.48 0.938-5.19 0.195-0.901 0.389-1.8 0.59-2.73 0.156-0.687 0.312-1.37 0.473-2.08h-2v-2c-3.96 0.33-7.92 0.66-12 1v3h-2c0.227 0.722 0.454 1.44 0.688 2.19 0.396 3.57-0.644 4.95-2.69 7.81-0.433-0.959-0.433-0.959-0.875-1.94-0.953-2.21-0.953-2.21-3.12-3.06 0.312-0.991 0.624-1.98 0.945-3 1.13-3.93 1.55-7.87 1.93-11.9 0.871-7.82 2.59-12.8 7.44-19.1 3.61-2.69 5.23-2.58 9.69-2z" fill="#ffffff"/>
<path transform="translate(1140,318)" d="m0 0c1.65 0.33 3.3 0.66 5 1 1.51 4.03 1.52 8.01 0 12-11.7 15.6-32.5 28.4-51.5 31.6-12.5 1.53-23.6 0.169-34-7.26-0.51-0.431-1.02-0.861-1.55-1.3v-1h6v4c0.804-0.0206 1.61-0.0412 2.44-0.0625 2.56 0.0625 2.56 0.0625 3.56 1.06 3.42 0.5 3.42 0.5 7 0 1.93-2.2 1.93-2.2 3-5 0.392-0.701 0.784-1.4 1.19-2.12 1.01-1.99 1.01-1.99 0.812-4.88h2c0.33-0.99 0.66-1.98 1-3h4c0.464 1.67 0.464 1.67 0.938 3.38 0.886 3.42 0.886 3.42 2.06 5.62 0.681-0.309 1.36-0.619 2.06-0.938 2.94-1.06 2.94-1.06 6.69-1.56 1.61-0.248 1.61-0.248 3.25-0.5 0.33-0.66 0.66-1.32 1-2 1.89-0.641 1.89-0.641 4.25-1.25 3.42-1.06 5.33-1.95 7.5-4.81 2.82-3.68 5.06-4.51 9.5-5.38 0.578-0.186 1.15-0.371 1.75-0.562 0.495-1.49 0.495-1.49 1-3 1.33-1.33 2.67-2.67 4-4v-2c0.598-0.206 1.2-0.413 1.81-0.625 3-1.88 3.8-4.19 5.19-7.38z" fill="#ffffff"/>
<path transform="translate(688,959)" d="m0 0c2.06 1.58 2.85 2.69 4 5 0.595 5.02 0.602 7.04-2.12 11.4-5.2 5.38-11.7 9.43-17.9 13.6-2.13 1.46-4.25 2.92-6.38 4.38-1.05 0.719-2.09 1.44-3.17 2.18-4.82 3.37-9.5 6.96-14.2 10.5-0.645 0.492-1.29 0.984-1.96 1.49-0.858 0.66-0.858 0.66-1.73 1.33-1.6 1.07-1.6 1.07-4.6 2.07-0.66-2.97-1.32-5.94-2-9l4-1 1-6c0.592 0.13 1.18 0.26 1.79 0.395 5.38 0.957 5.38 0.957 10.2-1.39 2.3-3.46 2.69-5.9 3-10 0.33-0.66 0.66-1.32 1-2v-4l-2-2c2.17-3.25 2.71-3.36 6-5 2.39-1.76 4.69-3.63 7-5.5 10.3-8.32 10.3-8.32 18-6.5z" fill="#ffffff"/>
<path transform="translate(211,150)" d="m0 0 2 2c2.66 0.463 2.66 0.463 5.62 0.625 1.5 0.112 1.5 0.112 3.04 0.227 0.771 0.049 1.54 0.098 2.34 0.148v2c-1.98 0.33-3.96 0.66-6 1 0.495 1.58 0.495 1.58 1 3.19 0.84 3.2 1.2 5.55 1 8.81h2c0.812 2.19 0.812 2.19 1 5-3.39 4.45-6.97 6.01-12 8-2.22 1.93-2.22 1.93-3 5-1.11 0.454-2.23 0.908-3.38 1.38-4 1.79-4.69 2.85-6.62 6.62-3 2-3 2-6 2-0.66 1.98-1.32 3.96-2 6-0.99-0.33-1.98-0.66-3-1 0.165-0.557 0.33-1.11 0.5-1.69 0.54-2.5 0.571-4.76 0.5-7.31-0.598 0.516-1.2 1.03-1.81 1.56-0.722 0.474-1.44 0.949-2.19 1.44-0.99-0.33-1.98-0.66-3-1 0.49-4.41 1.82-6.01 5-9 0.447-0.759 0.895-1.52 1.36-2.3 1.78-2.93 3.82-5.31 6.08-7.89 6.63-7.72 12.1-16.3 17.6-24.8z" fill="#ffffff"/>
<path transform="translate(1322,422)" d="m0 0h2c-0.602 4.04-1.22 8.07-1.86 12.1-0.214 1.37-0.422 2.73-0.625 4.1-2.67 17.9-8.48 32.1-22.3 44.2-3.62 2.6-6.03 3.6-10.5 3.45-4.25-1.04-7.17-2.71-10.8-5.14-0.891-0.574-0.891-0.574-1.8-1.16-3.81-2.52-6.95-5.26-10.1-8.59 3.96 0.33 7.92 0.66 12 1-0.66-1.65-1.32-3.3-2-5h3v2c1.05-0.0412 2.1-0.0825 3.19-0.125 3.58 0.117 5.72 0.394 8.81 2.12 0.33 0.99 0.66 1.98 1 3h4c0.591-1.95 0.591-1.95 1-4-0.495-0.495-0.495-0.495-1-1-0.0408-2-0.0425-4 0-6 0.66 0.66 1.32 1.32 2 2 0.66-0.33 1.32-0.66 2-1v3h3c0.495-4.95 0.495-4.95 1-10h3v-5c0.99-0.33 1.98-0.66 3-1 0.66 0.33 1.32 0.66 2 1 1.5-4.8 2.96-9.56 3.94-14.5 2.52-12 2.52-12 6.06-15.5z" fill="#ffffff"/>
<path transform="translate(705,866)" d="m0 0c3 2 3 2 5 5 0.4 2.81 0.242 5.14 0 8-0.66-0.99-1.32-1.98-2-3-1.18 0.247-1.18 0.247-2.38 0.5-2.62 0.5-2.62 0.5-4.62 0.5v7c-0.99 0.495-0.99 0.495-2 1-0.66-0.33-1.32-0.66-2-1l1 4c-3 2-3 2-6 3-0.8 3.29-1.1 4.71 0 8h-4c-0.33 1.32-0.66 2.64-1 4-1.49-0.495-1.49-0.495-3-1-0.66 0.66-1.32 1.32-2 2-1.49-0.495-1.49-0.495-3-1v17h2c-0.33 1.98-0.66 3.96-1 6h-3v3l-1 2c-2.4 0.414-2.4 0.414-5.38 0.625-1.47 0.112-1.47 0.112-2.96 0.227-1.89 0.105-3.78 0.148-5.66 0.148 1.68-4.37 3.63-8.58 5.62-12.8 0.356-0.753 0.711-1.51 1.08-2.28 3.25-6.86 6.6-13.7 10-20.4 0.94-1.85 1.88-3.7 2.81-5.56 1.72-3.41 3.46-6.82 5.19-10.2 0.555-1.1 1.11-2.21 1.68-3.35 0.533-1.04 1.07-2.07 1.61-3.14 0.709-1.39 0.709-1.39 1.43-2.82 3.33-5.22 7.46-6.63 13.5-5.38z" fill="#ffffff"/>
<path transform="translate(634,240)" d="m0 0c5.75 0.75 5.75 0.75 8 3v3c3.3 0.66 6.6 1.32 10 2v-2c-0.99-0.33-1.98-0.66-3-1 0.99-0.33 1.98-0.66 3-1 0.733-2.02 0.733-2.02 1-4 2.09 1.72 4.17 3.45 6.25 5.19 0.587 0.483 1.17 0.966 1.78 1.46 8.54 7.15 8.54 7.15 9.43 11.7-0.0425 1.13-0.0425 1.13-0.0859 2.27-0.0129 0.755-0.0258 1.51-0.0391 2.29-0.336 2.09-0.336 2.09-2.34 5.09-10.4 1.11-19-3.12-27.5-8.62-1.57-0.992-3.15-1.98-4.72-2.98-0.68-0.437-1.36-0.873-2.06-1.32-1.73-1.12-1.73-1.12-3.72-2.08v-2c0.804-0.289 1.61-0.577 2.44-0.875 2.7-0.858 2.7-0.858 3.56-3.12h-2c-0.66-1.65-1.32-3.3-2-5h2v-2z" fill="#ffffff"/>
<path transform="translate(611,1014)" d="m0 0h6c1 6.75 1 6.75 1 9h-4v2c1.65 0.66 3.3 1.32 5 2v-7c1.32-0.33 2.64-0.66 4-1v5h5c-0.66-1.98-1.32-3.96-2-6 0.99-0.33 1.98-0.66 3-1 3 2 3 2 4 4-0.66 0.33-1.32 0.66-2 1v3c0.66 0.33 1.32 0.66 2 1-0.33 2.31-0.66 4.62-1 7-6.77 1.81-13.6 3.38-20.4 4.69-0.674 0.131-1.35 0.262-2.04 0.398-3.54 0.659-6.93 1.26-10.5 0.915-3.43-2.57-4.79-4.33-6.06-8.44 0.0792-4.51 1.16-6.14 4.06-9.56 1.93-1.79 3.91-3.39 6-5 1.5 1.31 1.5 1.31 3 3v3c0.99-0.33 1.98-0.66 3-1 0.66 0.33 1.32 0.66 2 1 0.124-0.639 0.247-1.28 0.375-1.94 0.309-1.02 0.309-1.02 0.625-2.06 0.66-0.33 1.32-0.66 2-1h-2c-0.33-0.99-0.66-1.98-1-3z" fill="#ffffff"/>
<path transform="translate(910,508)" d="m0 0h1c0.0606 0.927 0.121 1.85 0.184 2.81 0.0838 1.2 0.168 2.4 0.254 3.63 0.0812 1.19 0.162 2.39 0.246 3.62-0.00703 2.83-0.00703 2.83 1.32 3.94 0.0873 1.78 0.107 3.56 0.0977 5.35-0.00483 1.62-0.00483 1.62-0.00977 3.27-0.00838 1.14-0.0168 2.27-0.0254 3.44-0.00451 1.14-0.00902 2.28-0.0137 3.46-0.0118 2.83-0.0283 5.65-0.0488 8.48 2.97-0.495 2.97-0.495 6-1 0.33-2.31 0.66-4.62 1-7 1.98-0.33 3.96-0.66 6-1 0.559 21.3 0.559 21.3-4.19 28.2-3.63 2.34-5.57 2.49-9.81 1.81-3.39-2.14-4.73-3.18-6-7-0.688-8.54 0.492-17.3 1.23-25.8 0.211-2.45 0.416-4.91 0.619-7.36 0.133-1.58 0.266-3.15 0.4-4.73 0.0605-0.725 0.121-1.45 0.183-2.2 0.35-4.01 0.851-7.95 1.57-11.9z" fill="#ffffff"/>
<path transform="translate(491,306)" d="m0 0c0.281 5.53 0.322 8.37-3 13-12.6 11.6-32.5 16.9-49.2 16.4-5.95-0.569-11.5-2.06-15.8-6.36 0.831 0.0838 1.66 0.168 2.52 0.254 1.09 0.102 2.17 0.204 3.29 0.309 1.08 0.104 2.16 0.209 3.27 0.316 2.98 0.297 2.98 0.297 5.92-0.879 0.66 0.33 1.32 0.66 2 1v-2c3.54-1.18 5.47-0.448 8.99 0.52 2.38 0.569 4.57 0.633 7.01 0.48 0.33-0.66 0.66-1.32 1-2h3v-2c3.3-0.66 6.6-1.32 10-2v-3c1.65-0.33 3.3-0.66 5-1v-2h2l5-5h2v-3c5.88-3 5.88-3 7-3z" fill="#ffffff"/>
<path transform="translate(908,325)" d="m0 0c-1.38 3.91-3.2 6.88-5.69 10.2-3.38 4.55-6.66 9.15-9.87 13.8-1.45 2-1.45 2-3.45 4-4.32 0.653-8.03 0.445-12-1.38-2-1.62-2-1.62-3-3.62-0.0719-2.88-0.0929-5.74-0.0625-8.62 0.00451-0.802 0.00902-1.6 0.0137-2.43 0.0118-1.98 0.0297-3.96 0.0488-5.95 5.75 2.75 5.75 2.75 8 5v4c1.65-0.33 3.3-0.66 5-1v-4c4.39-2.47 8.04-3.32 13-4 0.33-0.66 0.66-1.32 1-2h2c0.33-0.99 0.66-1.98 1-3 2-1 2-1 4-1z" fill="#ffffff"/>
<path transform="translate(1207,347)" d="m0 0c1.63 0.955 3.25 1.91 4.88 2.88 0.905 0.534 1.81 1.07 2.74 1.62 2.38 1.51 2.38 1.51 4.38 3.51-0.216 4.86-1.48 7.66-5 11-5.56 3.21-11.7 3.94-18 3-2.92-1.09-5.3-2.4-8-4v-1c2.31-0.66 4.62-1.32 7-2-0.348-1.98-0.348-1.98-1-4-0.66-0.33-1.32-0.66-2-1v-3c-0.66-0.33-1.32-0.66-2-1h5c0.66-1.65 1.32-3.3 2-5 2.97 0.495 2.97 0.495 6 1-0.33 1.98-0.66 3.96-1 6 1.32 0.66 2.64 1.32 4 2 1.16-3.47 1.07-6.36 1-10z" fill="#ffffff"/>
<path transform="translate(926,488)" d="m0 0c2.74 2.17 3.85 3.74 4.27 7.24 0.0875 5.63-0.554 11.2-1.27 16.8-0.66-0.66-1.32-1.32-2-2-1.67-0.0406-3.33-0.0427-5 0-0.33-0.33-0.66-0.66-1-1-1.33-1.01-2.66-2.01-4-3-0.66 1.32-1.32 2.64-2 4-2.23-3.34-2.13-5.04-1.98-8.95 0.0648-2.27 0.0648-2.27-0.828-5.24-0.188-2.81-0.188-2.81 2.12-5.62 4.3-3.5 6.25-3.5 11.7-2.19z" fill="#ffffff"/>
<path transform="translate(153,295)" d="m0 0c-1.32 8.02-3.11 15.8-5.25 23.7-0.275 1.08-0.549 2.15-0.832 3.26-1.97 7.21-4.6 12.7-9.92 18.1-2.36 0.32-2.36 0.32-5 0-3.88-3.94-6.94-9.59-8-15 0.375-3.88 0.375-3.88 1-7 2 1 2 1 4 4 0.394 2.32 0.735 4.66 1 7h4c0.495-2.97 0.495-2.97 1-6 1.09 0.103 2.19 0.206 3.31 0.312 3.75 0.103 3.75 0.103 5.62-2.44 1.18-3.2 1.36-5.49 1.06-8.88-0.33-0.66-0.66-1.32-1-2h3v-2h2v-12c2-1 2-1 4-1z" fill="#ffffff"/>
<path transform="translate(909,670)" d="m0 0c2.06 0.438 2.06 0.438 4 1-0.317 7.06-1.41 14-2.75 20.9-0.145 0.82-0.289 1.64-0.438 2.49-1.06 5.25-2.38 8.27-6.81 11.6-4.27 0.686-6.21 0.5-9.88-1.81-2.91-3-3.12-4.7-3.19-8.88 0.0206-1.09 0.0412-2.19 0.0625-3.31 0.33 0.99 0.66 1.98 1 3 0.742-0.186 1.49-0.371 2.25-0.562 2.7-0.43 4.2-0.289 6.75 0.562v-3c1.98-0.33 3.96-0.66 6-1 0.559-1.74 1.1-3.5 1.62-5.25 0.302-0.975 0.603-1.95 0.914-2.95 0.525-3.18 0.0528-4.1-1.54-6.8 0.526-4.53 0.526-4.53 2-6z" fill="#ffffff"/>
<path transform="translate(842,326)" d="m0 0 2 1c0.492 8.24-0.0949 17.1-4.36 24.3-1.64 1.68-1.64 1.68-5.51 2.18-4.08-0.181-6.22-1.59-9.12-4.5 0.33-1.32 0.66-2.64 1-4 1.32-0.33 2.64-0.66 4-1l-2-1h4c0.186-1.55 0.186-1.55 0.375-3.12 0.564-3.5 1.41-6.56 2.62-9.88h5v-3l2-1z" fill="#ffffff"/>
<path transform="translate(1356,301)" d="m0 0c2.73 1.59 4.01 2.98 5 6 1 14.2-6.05 25.3-13 37-1.22-3.65-0.646-4.54 0.812-8 0.357-0.866 0.714-1.73 1.08-2.62 1.11-2.38 1.11-2.38 3.11-5.38 0.465-4.35 0.465-4.35-1.56-8.06-1.44-1.94-1.44-1.94-1.12-4.69 0.227-0.743 0.454-1.49 0.688-2.25 2.31-0.66 4.62-1.32 7-2v-3c-0.99-0.66-1.98-1.32-3-2v-2h-2c-0.33 0.66-0.66 1.32-1 2h-4v2h-2c-0.33-1.32-0.66-2.64-1-4h-6c0.188-1.88 0.188-1.88 1-4 5.68-3.08 10.3-1.36 16 1z" fill="#ffffff"/>
<path transform="translate(678,903)" d="m0 0c0.495 8.41 0.495 8.41 1 17h2c-0.33 1.98-0.66 3.96-1 6h-3v3c-0.33 0.66-0.66 1.32-1 2-2.4 0.414-2.4 0.414-5.38 0.625-0.977 0.0748-1.95 0.15-2.96 0.227-1.89 0.105-3.78 0.148-5.66 0.148 1.75-4.59 3.84-9 5.94-13.4 0.347-0.738 0.695-1.48 1.05-2.24 0.681-1.44 1.36-2.88 2.05-4.32 0.87-1.82 1.73-3.65 2.59-5.48 1.91-3.53 1.91-3.53 4.37-3.53z" fill="#ffffff"/>
<path transform="translate(632,231)" d="m0 0c1.94 0.312 1.94 0.312 4 1 0.33 0.99 0.66 1.98 1 3 1.18-0.268 2.35-0.536 3.56-0.812 3.54-0.448 5.45-0.0253 8.44 1.94 2.46 1.99 2.93 2.45 3.44 5.69-0.144 0.722-0.289 1.44-0.438 2.19l-2 1c0.66 0.33 1.32 0.66 2 1v2c-1.63-0.282-3.25-0.576-4.88-0.875-0.905-0.162-1.81-0.325-2.74-0.492-2.38-0.633-2.38-0.633-4.38-2.63v-3c-2.42-0.167-2.42-0.167-5 0-0.66 0.66-1.32 1.32-2 2 0.319 2.11 0.319 2.11 1 4h2c-0.33 0.99-0.66 1.98-1 3-3.31 0.688-3.31 0.688-7 1-1.75-1.31-1.75-1.31-3-3-0.99-0.66-1.98-1.32-3-2 3.13-3.22 5.95-5.97 10-8v-7z" fill="#ffffff"/>
<path transform="translate(858 811)" d="m0 0c0.866 0.268 1.73 0.536 2.62 0.812-1.34 4.01-2.65 7.47-5 11h-2v3c-0.99 0.33-1.98 0.66-3 1v4c-3.51 2.34-4.86 2.5-9 2-2.81-1.5-2.81-1.5-5-4-0.709-2.73-0.858-5.15-1-8 1.05 0.351 2.1 0.701 3.19 1.06 3.61 0.887 5.34 0.99 8.81-0.0625 0.0412-0.887 0.0825-1.77 0.125-2.69 1.42-5.38 4.56-8.44 10.2-8.12z" fill="#ffffff"/>
<path transform="translate(522,245)" d="m0 0c3.18 2.9 3.94 4.96 4.2 9.33 0.155 12.9 0.155 12.9-3.2 18.7-0.66-0.33-1.32-0.66-2-1-0.373-1.66-0.707-3.33-1-5-0.33-0.33-0.66-0.66-1-1-0.66 0.66-1.32 1.32-2 2-0.0619-0.928-0.0619-0.928-0.125-1.88-0.289-0.701-0.577-1.4-0.875-2.12-3-1.3-3-1.3-6-2 0.625-3.38 0.625-3.38 2-7 0.949-0.309 1.9-0.619 2.88-0.938 3.18-0.73 3.18-0.73 4.41-2.95 0.984-2.01 1.89-4.03 2.72-6.11z" fill="#ffffff"/>
<path transform="translate(744,976)" d="m0 0c-0.33 0.99-0.66 1.98-1 3-3.6 1.52-6.05 2-10 2v2c-3.04 1.32-6.08 2.63-9.12 3.94-0.856 0.373-1.71 0.746-2.59 1.13-4.43 1.89-8.44 3.43-13.3 3.93v2h-5v2c-3.96 0.99-7.92 1.98-12 3v2c-0.86 0.242-1.72 0.485-2.61 0.734-6.03 1.71-12 3.45-18 5.33-17.7 5.46-17.7 5.46-25.4 4.94 3.07-2.05 5.24-2.72 8.79-3.63 1.17-0.308 2.35-0.616 3.56-0.933l3.83-1c24.9-6.67 48.6-16.8 72.3-26.9 1.08-0.458 2.16-0.917 3.28-1.39 0.966-0.412 1.93-0.824 2.93-1.25 2.34-0.892 2.34-0.892 4.34-0.892z" fill="#ffffff"/>
<path transform="translate(1285 354)" d="m0 0c1.21 0.0309 1.21 0.0309 2.44 0.0625v2c0.99 0.33 1.98 0.66 3 1v4h5v-2h6v2c1.58-0.0309 1.58-0.0309 3.19-0.0625 3.14 0.0515 5.78 0.328 8.81 1.06v1c-8.85 1.54-17.5 2.19-26.4 2.19-0.922 6.45e-4 -1.84 0.00129-2.8 0.00195-5.34-0.0425-10.5-0.417-15.8-1.19 0.66-0.99 1.32-1.98 2-3 0.681 0.186 1.36 0.371 2.06 0.562 3.51 0.523 6.46 0.0513 9.94-0.562-0.186-0.969-0.371-1.94-0.562-2.94-0.144-1.01-0.289-2.02-0.438-3.06 1-1 1-1 3.56-1.06z" fill="#ffffff"/>
<path transform="translate(513,321)" d="m0 0h2c0.33 0.66 0.66 1.32 1 2l2 1v3c0.577-0.289 1.15-0.577 1.75-0.875 1.45-0.725 2.91-1.43 4.38-2.12 2.04-0.971 2.04-0.971 3.88-3 1.65 5.15 1.7 9.52-0.625 14.4-2.38 2.56-2.38 2.56-5 3.25-4.91-1-9.01-3.27-13.4-5.69 0.33-0.66 0.66-1.32 1-2 1.65 0.33 3.3 0.66 5 1v-3h-2v-8z" fill="#ffffff"/>
<path transform="translate(975,280)" d="m0 0c3 0 3 0 4.75 1.19 1.25 1.81 1.25 1.81 0.938 4.5-0.227 0.763-0.454 1.53-0.688 2.31h-6v8c-1.32-0.33-2.64-0.66-4-1v-1c-4.46-0.99-4.46-0.99-9-2 3.22-3.81 6.4-7.54 10-11 0.99 0.33 1.98 0.66 3 1 0.33-0.66 0.66-1.32 1-2z" fill="#ffffff"/>
<path transform="translate(1024,337)" d="m0 0h1c0.902 4.06 1.15 8.04 1.25 12.2 0.0258 1.02 0.0516 2.05 0.0781 3.11-0.328 2.71-0.328 2.71-1.61 4.54-2.43 1.65-4.77 1.69-7.65 1.61-3.61-0.762-5.5-2.87-8.07-5.44 3.05-0.981 4.95-0.981 8 0-0.33-2.31-0.66-4.62-1-7 3.37-1.08 4.3-0.925 8 0v-9z" fill="#ffffff"/>
<path transform="translate(815,211)" d="m0 0c0.557 0.309 1.11 0.619 1.69 0.938 2.29 1.19 2.29 1.19 4.94 1.44 0.784 0.206 1.57 0.412 2.38 0.625 0.268 0.66 0.536 1.32 0.812 2 0.392 0.66 0.784 1.32 1.19 2 2.52 0.631 2.52 0.631 5.38 0.625 3.81 0.134 6.3 0.489 9.62 2.38 1.32 0.368 2.66 0.712 4 1-0.33-0.99-0.66-1.98-1-3 1.44-2.19 1.44-2.19 3-4 1.32 0.66 2.64 1.32 4 2v6c-5.78 2.66-10.9 2.47-17 1-6.92-2.65-13.8-5.89-20-10 0.33-0.99 0.66-1.98 1-3z" fill="#ffffff"/>
<path transform="translate(1095,264)" d="m0 0c-0.33 1.65-0.66 3.3-1 5h2v2c-3.09 1.76-4.23 2-8 2v3l-4-1v-2c-1.98-0.66-3.96-1.32-6-2 2.94-8.24 9.6-8.51 17-7z" fill="#ffffff"/>
<path transform="translate(1258,424)" d="m0 0c2.62 2 2.62 2 4 4-1.65 0.66-3.3 1.32-5 2 0.33 0.66 0.66 1.32 1 2-3.65 1.27-6.49 0.757-10.2 0.0625-1.08-0.195-2.16-0.389-3.27-0.59-1.23-0.234-1.23-0.234-2.48-0.473-0.33-0.99-0.66-1.98-1-3 5.55-3.86 10.2-5.22 17-4z" fill="#ffffff"/>
<path transform="translate(1481,322)" d="m0 0c0.66 0.66 1.32 1.32 2 2-0.0938 2.43-0.0938 2.43-1 5-5.48 4.82-11.9 6.86-19 8v-2h2v-2c0.66-0.66 1.32-1.32 2-2 0.33-0.66 0.66-1.32 1-2 2.9-1.37 4.76-2 8-2-0.33-0.99-0.66-1.98-1-3 1.98-0.66 3.96-1.32 6-2z" fill="#ffffff"/>
<path transform="translate(1305,275)" d="m0 0c5.36 0.335 9.12 3.56 13 7 2.29 3.44 2.18 4.99 2 9-0.66-0.66-1.32-1.32-2-2h-2c-4.82-2.47-4.82-2.47-6-6-2.31-0.33-4.62-0.66-7-1v-5h2v-2z" fill="#ffffff"/>
<path transform="translate(913,627)" d="m0 0c2.88 2.12 2.88 2.12 5 5 0.312 3.81 0.312 3.81 0 7h-5v-2c-0.99 0.33-1.98 0.66-3 1v-2h3c-0.33-0.66-0.66-1.32-1-2h-2v-2h-9c2-4 2-4 3.75-5.31 3.19-0.974 5.07-0.662 8.25 0.312z" fill="#ffffff"/>
<path transform="translate(833,263)" d="m0 0c0.66 0.99 1.32 1.98 2 3h-7v2h-3c-0.66 2.97-1.32 5.94-2 9h-4c-0.647-3.36-1.13-6.58-1-10 4.44-5.05 8.65-5.39 15-4z" fill="#ffffff"/>
<path transform="translate(690,997)" d="m0 0c0.99 0.66 1.98 1.32 3 2h-2v2c-0.86 0.242-1.72 0.485-2.61 0.734-6.03 1.71-12 3.45-18 5.33-17.7 5.46-17.7 5.46-25.4 4.94 3.16-2.1 5.53-2.81 9.18-3.77 1.86-0.498 1.86-0.498 3.76-1.01 2.59-0.683 5.17-1.36 7.76-2.04 7.52-2.02 14.6-4.33 21.7-7.43 0.86-0.248 1.72-0.496 2.6-0.751z" fill="#ffffff"/>
<path transform="translate(946,268)" d="m0 0c1.94 0.375 1.94 0.375 4 1 1.62 3.24 1.14 6.76 1.12 10.3 0.00387 0.76 0.00773 1.52 0.0117 2.3-0.00683 3.93-0.172 7.55-1.14 11.4-0.99-0.33-1.98-0.66-3-1v-8c-0.534-3.31-1.09-6.62-1.66-9.93-0.34-3.07-0.34-3.07 0.66-6.07z" fill="#ffffff"/>
<path transform="translate(176,215)" d="m0 0c6.75-0.125 6.75-0.125 9 1v2c-2.14 1.63-4.27 3.14-6.5 4.62-0.62 0.42-1.24 0.84-1.88 1.27-1.54 1.04-3.08 2.07-4.62 3.1-0.33-0.66-0.66-1.32-1-2-0.99-0.33-1.98-0.66-3-1 0.33-1.65 0.66-3.3 1-5 2.97 0.495 2.97 0.495 6 1 0.33-1.65 0.66-3.3 1-5z" fill="#ffffff"/>
<path transform="translate(1e3 258)" d="m0 0c1.68 0.726 3.34 1.52 4.98 2.33-3.22 2.15-5.69 2.85-9.44 3.75-1.13 0.284-2.27 0.567-3.43 0.859-3.27 0.408-4.45 0.205-7.13-1.61 4.31-5.61 7.7-7.77 15-5.33z" fill="#ffffff"/>
<path transform="translate(455,315)" d="m0 0v6c-3.33 1.11-5.93 1.17-9.44 1.19-1.13 0.0142-2.27 0.0284-3.43 0.043-2.98-0.22-4.62-0.672-7.13-2.23 0.33-0.99 0.66-1.98 1-3 1.46 0.0348 1.46 0.0348 2.96 0.0703 1.27 0.018 2.54 0.0361 3.86 0.0547 1.9 0.0348 1.9 0.0348 3.83 0.0703 3.5-0.204 5.09-2.2 8.36-2.2z" fill="#ffffff"/>
<path transform="translate(1072,275)" d="m0 0v5c-0.99 0.33-1.98 0.66-3 1-0.66-0.33-1.32-0.66-2-1 0.165 1.09 0.33 2.19 0.5 3.31 0.5 3.69 0.5 3.69 0.5 6.69-1.09-0.165-2.19-0.33-3.31-0.5-4.5-0.74-4.5-0.74-8.69 0.5 1.6-4.21 4.73-6.82 8-9.75 0.547-0.507 1.09-1.01 1.66-1.54 4.09-3.71 4.09-3.71 6.34-3.71z" fill="#ffffff"/>
<path transform="translate(576,230)" d="m0 0c2.29 7.12 2.29 7.12 1 11-2 2-2 2-5.19 2.31-0.928-0.103-1.86-0.206-2.81-0.312-0.66-2.31-1.32-4.62-2-7 1.12-1.01 2.25-2 3.38-3 0.94-0.835 0.94-0.835 1.9-1.69 1.73-1.31 1.73-1.31 3.73-1.31z" fill="#ffffff"/>
<path transform="translate(945,261)" d="m0 0c-4.14 4.14-10.3 3.36-15.9 3.72-2.5 0.227-4.7 0.576-7.09 1.28v-3c6.76-3.62 15.9-6.71 23-2z" fill="#ffffff"/>
<path transform="translate(908,308)" d="m0 0h6c0.66 1.32 1.32 2.64 2 4h-2v2c-0.99 0.66-1.98 1.32-3 2-1.2 2.55-1.2 2.55-2 5-0.33-0.66-0.66-1.32-1-2-0.99 0.66-1.98 1.32-3 2h-3c1.76-7.18 1.76-7.18 5-10 0.33-0.99 0.66-1.98 1-3z" fill="#ffffff"/>
<path transform="translate(1124 340)" d="m0 0c0.743 0.0825 1.48 0.165 2.25 0.25 0.688 1.81 0.688 1.81 1 4-1.25 1.44-1.25 1.44-3 3-0.454 0.866-0.908 1.73-1.38 2.62-1.62 2.38-1.62 2.38-4.12 3.31-2.5 0.0625-2.5 0.0625-5.5-1.94 0.66-0.33 1.32-0.66 2-1 0.33-0.99 0.66-1.98 1-3h3v-2c-0.66-0.33-1.32-0.66-2-1 3.32-3.94 3.32-3.94 6.75-4.25z" fill="#ffffff"/>
<path transform="translate(1398,321)" d="m0 0h6c0.33 0.66 0.66 1.32 1 2h-2c-0.227 0.639-0.454 1.28-0.688 1.94-1.48 3.44-3.24 6.63-5.09 9.88-1.14 2.03-2.19 4.09-3.22 6.18-1.63-5.46-1.08-10.9 1.5-15.9 0.495-0.681 0.99-1.36 1.5-2.06 0.33-0.66 0.66-1.32 1-2z" fill="#ffffff"/>
<path transform="translate(105 143)" d="m0 0c1.05-0.00516 2.11-0.0103 3.2-0.0156 2.68 0.266 2.68 0.266 4.68 2.27-4.12 2-7.45 2.18-12 2-0.33 0.66-0.66 1.32-1 2-0.66-0.33-1.32-0.66-2-1-0.33 1.65-0.66 3.3-1 5-0.99-0.33-1.98-0.66-3-1 0.351-0.598 0.701-1.2 1.06-1.81 1.27-2.3 1.27-2.3-0.0625-5.19 3.43-2.09 6.15-2.27 10.1-2.25z" fill="#ffffff"/>
<path transform="translate(327,305)" d="m0 0c0.66 0.33 1.32 0.66 2 1-4.08 3.95-7.54 4.6-13 5-2 0.322-4 0.65-6 1v-2h-25v-1c1.07-0.0297 1.07-0.0297 2.16-0.0601 20.4 0.61 20.4 0.61 39.8-3.94z" fill="#ffffff"/>
<path transform="translate(1438,387)" d="m0 0h29c-4.62 3.08-8.3 3.4-13.8 3.75-0.799 0.0683-1.6 0.137-2.42 0.207-5.13 0.329-8.33-0.14-12.8-2.96v-1z" fill="#ffffff"/>
<path transform="translate(1434,266)" d="m0 0c0.33 1.65 0.66 3.3 1 5-3.01 1-5.04 1.1-8.19 1.06-1.35-0.0135-1.35-0.0135-2.73-0.0273-0.687-0.0116-1.37-0.0232-2.08-0.0352 0-3 0-3 1.5-4.69 3.62-1.9 6.44-1.52 10.5-1.31z" fill="#ffffff"/>
<path transform="translate(633,1011)" d="m0 0c0.615 0.0838 1.23 0.168 1.86 0.254 1.21 0.153 1.21 0.153 2.45 0.309 0.801 0.104 1.6 0.209 2.43 0.316 2.43 0.269 2.43 0.269 5.26-0.879 0.99 0.33 1.98 0.66 3 1v2c-1.64 0.371-1.64 0.371-3.31 0.75-3.75 1.27-4.79 1.91-6.69 5.25-0.99-0.66-1.98-1.32-3-2v-2h-2v-5z" fill="#ffffff"/>
<path transform="translate(236,251)" d="m0 0h4c0.196 2.06 0.382 4.12 0.562 6.19 0.104 1.15 0.209 2.3 0.316 3.48 0.11 3.02-0.139 5.42-0.879 8.33h-2v-9h-2c-0.879-6.15-0.879-6.15-1-8l1-1z" fill="#ffffff"/>
<path transform="translate(838,271)" d="m0 0c-0.33 0.949-0.66 1.9-1 2.88-1.1 2.9-1.1 2.9-1 5.12h-7c-0.33-1.98-0.66-3.96-1-6h3v-2c2.67-1.33 4.17-0.671 7 0z" fill="#ffffff"/>
<path transform="translate(153,295)" d="m0 0c-1.3 7.77-3 15.4-5 23h-2c-0.66-2.64-1.32-5.28-2-8h3v-2h2v-12c2-1 2-1 4-1z" fill="#ffffff"/>
<path transform="translate(816,199)" d="m0 0c2.34 0.287 4.67 0.619 7 1v5h9c-0.99 1.49-0.99 1.49-2 3-4.75-0.875-4.75-0.875-7-2v2c-1.32-0.33-2.64-0.66-4-1-0.33-1.65-0.66-3.3-1-5-0.66 0.66-1.32 1.32-2 2-0.562-1.94-0.562-1.94-1-4 0.33-0.33 0.66-0.66 1-1z" fill="#ffffff"/>
<path transform="translate(798,873)" d="m0 0c0.99 0.66 1.98 1.32 3 2 0.555 4.84 0.724 6.91-2 11-0.66 0.66-1.32 1.32-2 2-1.65-0.33-3.3-0.66-5-1v-4c3.47-0.495 3.47-0.495 7-1-0.33-2.97-0.66-5.94-1-9z" fill="#ffffff"/>
<path transform="translate(781,965)" d="m0 0c3.06 2 3.06 2 5 4-0.33 0.66-0.66 1.32-1 2-0.619-0.516-1.24-1.03-1.88-1.56-4.57-2.1-8.26-1.14-13.1-0.438-1.87 0.196-3.75 0.384-5.62 0.562-0.838 0.0838-1.68 0.168-2.54 0.254-0.606 0.0606-1.21 0.121-1.84 0.184 6.14-4.1 13.6-6.36 21-5z" fill="#ffffff"/>
<path transform="translate(889,279)" d="m0 0h3c3.43 8.43 3.43 8.43 3 13h-2c-0.33 0.66-0.66 1.32-1 2v-6h-2c-0.99-2.31-1.98-4.62-3-7 0.66-0.66 1.32-1.32 2-2z" fill="#ffffff"/>
<path transform="translate(1101,333)" d="m0 0c0.33 0.66 0.66 1.32 1 2-6.32 3.42-11.8 5.06-19 4-3.62-1.5-3.62-1.5-6-3 3-1 3-1 6.22-0.473 4.17 0.521 7.15 0.00396 11.2-0.965 1.85-0.431 1.85-0.431 3.75-0.871 0.929-0.228 1.86-0.456 2.82-0.691z" fill="#ffffff"/>
<path transform="translate(1346,344)" d="m0 0c0.33 0.66 0.66 1.32 1 2-0.891 2.5-0.891 2.5-2.25 5.56-2.2 5.09-4.08 10.2-5.75 15.4-0.958-3.64-1.5-7.27-2-11h3c0.273-0.922 0.273-0.922 0.551-1.86 0.377-1.21 0.377-1.21 0.762-2.45 0.244-0.801 0.487-1.6 0.738-2.43 0.991-2.36 2.03-3.6 3.95-5.26z" fill="#ffffff"/>
<path transform="translate(929,344)" d="m0 0h16c-4 4-4 4-6 4.46-3.78-0.162-6.75-0.293-10-2.46v-2z" fill="#ffffff"/>
<path transform="translate(827,186)" d="m0 0c0.99 0.66 1.98 1.32 3 2-0.957 0.199-0.957 0.199-1.93 0.402-1.24 0.265-1.24 0.265-2.5 0.535-0.824 0.174-1.65 0.348-2.5 0.527-2.04 0.343-2.04 0.343-3.07 1.54-2.94 0.188-2.94 0.188-6 0-0.66-0.66-1.32-1.32-2-2 4.94-3.04 9.31-3.83 15-3z" fill="#ffffff"/>
<path transform="translate(909,670)" d="m0 0c1.32 0.33 2.64 0.66 4 1-0.33 3.63-0.66 7.26-1 11h-2c-3.06-5.27-3.06-5.27-2.75-8.81 0.75-2.19 0.75-2.19 1.75-3.19z" fill="#ffffff"/>
<path transform="translate(422,233)" d="m0 0c2.44 0.375 2.44 0.375 5 1 1.35 2.71 1.07 5.01 1 8-0.99 0.495-0.99 0.495-2 1-2-1.06-2-1.06-4-3-0.25-3.69-0.25-3.69 0-7z" fill="#ffffff"/>
<path transform="translate(1426,319)" d="m0 0c6.4-0.492 6.4-0.492 9.44 2 0.773 0.99 0.773 0.99 1.56 2h-5v2h-5c-0.553-2.08-1-3.84-1-6z" fill="#ffffff"/>
<path transform="translate(287,310)" d="m0 0h23v1c-8.03 2.73-15 2.73-23 0v-1z" fill="#ffffff"/>
<path transform="translate(1335,373)" d="m0 0c1.29 3.87 0.223 6.44-0.938 10.2-0.195 0.654-0.391 1.31-0.592 1.98-0.483 1.61-0.976 3.22-1.47 4.83-0.433-0.897-0.433-0.897-0.875-1.81-1.17-2.38-1.17-2.38-3.12-5.19 1.31-2.5 1.31-2.5 3-5h3c0.33-1.65 0.66-3.3 1-5z" fill="#ffffff"/>
<path transform="translate(1272,338)" d="m0 0c7.26 0.66 14.5 1.32 22 2-0.33 0.66-0.66 1.32-1 2-2.38 0.0816-4.75 0.141-7.12 0.188-0.665 0.0251-1.33 0.0503-2.02 0.0762-4.73 0.0695-7.81-0.861-11.9-3.26v-1z" fill="#ffffff"/>
<path transform="translate(906,551)" d="m0 0h2v2c0.99 0.33 1.98 0.66 3 1 0.201 3.63-0.142 5.87-2 9h-2c-0.961-2.88-1.11-4.7-1.06-7.69 0.00902-0.808 0.018-1.62 0.0273-2.45 0.0116-0.615 0.0232-1.23 0.0352-1.86z" fill="#ffffff"/>
<path transform="translate(502,254)" d="m0 0c1.32 0.33 2.64 0.66 4 1-0.33 2.97-0.66 5.94-1 9-3 0-3 0-5-1 0.486-3.12 0.999-6 2-9z" fill="#ffffff"/>
<path transform="translate(685,884)" d="m0 0h4c0.81 2.91 1.22 4.46 0.0625 7.31-0.526 0.835-0.526 0.835-1.06 1.69-1.94-0.812-1.94-0.812-4-2-1-3-1-3-0.0625-5.19 0.526-0.897 0.526-0.897 1.06-1.81z" fill="#ffffff"/>
<path transform="translate(807,199)" d="m0 0h4c0.144 1.11 0.289 2.23 0.438 3.38 0.346 3.45 0.346 3.45 1.56 5.62-0.33 0.66-0.66 1.32-1 2-1.95-0.711-1.95-0.711-4-2-0.609-2.16-0.609-2.16-0.75-4.62-0.0567-0.817-0.113-1.63-0.172-2.48-0.0258-0.626-0.0516-1.25-0.0781-1.9z" fill="#ffffff"/>
<path transform="translate(797,871)" d="m0 0c0.33 0.66 0.66 1.32 1 2-4.62 0.33-9.24 0.66-14 1 5.08-5.08 6.56-5.66 13-3z" fill="#ffffff"/>
<path transform="translate(1299,289)" d="m0 0v2c0.66 0.33 1.32 0.66 2 1-0.66 1.32-1.32 2.64-2 4-2.97-0.33-5.94-0.66-9-1 0.99-0.33 1.98-0.66 3-1v-3c3.75-2 3.75-2 6-2z" fill="#ffffff"/>
<path transform="translate(519,278)" d="m0 0h1c-0.33 6.27-0.66 12.5-1 19-0.66-0.33-1.32-0.66-2-1-1.06-5.15-2.03-10.9 0.438-15.8 0.516-0.743 1.03-1.49 1.56-2.25z" fill="#ffffff"/>
<path transform="translate(878,268)" d="m0 0c3.17 2.11 4.2 3.74 6 7-2.31 0.66-4.62 1.32-7 2-0.0977-6.15-0.0977-6.15 0-8 0.33-0.33 0.66-0.66 1-1z" fill="#ffffff"/>
<path transform="translate(815,211)" d="m0 0c0.557 0.309 1.11 0.619 1.69 0.938 2.44 1.12 4.67 1.62 7.31 2.06 0.66 1.98 1.32 3.96 2 6-3.96-1.98-7.92-3.96-12-6 0.33-0.99 0.66-1.98 1-3z" fill="#ffffff"/>
<path transform="translate(202,164)" d="m0 0c0.66 0.33 1.32 0.66 2 1 0.144 0.619 0.289 1.24 0.438 1.88 0.66 2.49 1.65 3.46 3.56 5.12-4 0-4 0-6.62-0.562-2.38-0.685-2.38-0.685-4.38 0.562 1.37-2.95 2.99-5.44 5-8z" fill="#ffffff"/>
<path transform="translate(700,997)" d="m0 0h6c-0.33 0.66-0.66 1.32-1 2h-2v2c-4.12 1.63-6.71 2.26-11 1 3.06-2.62 3.73-3 8-3v-2z" fill="#ffffff"/>
<path transform="translate(688,959)" d="m0 0c1.94 1.56 1.94 1.56 3 3-0.33 0.66-0.66 1.32-1 2-0.33-0.99-0.66-1.98-1-3-1.05 0.186-2.1 0.371-3.19 0.562-3.38 0.388-5.58 0.32-8.81-0.562 3.61-3.61 6.2-3.22 11-2z" fill="#ffffff"/>
<path transform="translate(125,318)" d="m0 0c2 1 2 1 4 4-0.242 2.26-0.242 2.26-0.875 4.69-0.204 0.808-0.407 1.62-0.617 2.45-0.251 0.922-0.251 0.922-0.508 1.86-2.24-2.24-2.58-2.92-3-6 0.273-2.34 0.598-4.68 1-7z" fill="#ffffff"/>
<path transform="translate(642,252)" d="m0 0c2.31 0.66 4.62 1.32 7 2v3h-9c0.66-1.65 1.32-3.3 2-5z" fill="#ffffff"/>
<path transform="translate(975,304)" d="m0 0h6c-0.936 1.11-1.87 2.21-2.81 3.31-0.783 0.922-0.783 0.922-1.58 1.86-2.94 3.34-2.94 3.34-4.61 4.82h-2v-2h2v-2h2c0.33-1.98 0.66-3.96 1-6z" fill="#ffffff"/>
<path transform="translate(929,494)" d="m0 0c1.48 2.96 1.06 5.74 1 9h-3c-1.12-3.75-1.12-3.75 0-6h-4c1.39-2.79 2.99-3 6-3z" fill="#ffffff"/>
<path transform="translate(104,151)" d="m0 0h7c-0.33 1.65-0.66 3.3-1 5-1.98 0.33-3.96 0.66-6 1v-6z" fill="#ffffff"/>
<path transform="translate(701 866)" d="m0 0c0.701-0.0258 1.4-0.0516 2.12-0.0781 0.619 0.108 1.24 0.217 1.88 0.328 0.66 0.99 1.32 1.98 2 3h-12v2h-2c1.94-4.3 3.32-5.15 8-5.25z" fill="#ffffff"/>
<path transform="translate(926,488)" d="m0 0c-0.33 1.32-0.66 2.64-1 4-2.88-0.312-2.88-0.312-6-1-0.66-0.99-1.32-1.98-2-3 3.07-1.53 5.7-0.55 9 0z" fill="#ffffff"/>
<path transform="translate(618,1020)" d="m0 0c0.66 0.33 1.32 0.66 2 1v6c-1.32 0.33-2.64 0.66-4 1v-2h-5c0.99-0.33 1.98-0.66 3-1v-2h4v-3z" fill="#ffffff"/>
<path transform="translate(704,994)" d="m0 0c-1 2-1 2-3.69 3.12-3.27 0.864-5.95 1.04-9.31 0.875 2.04-2.04 3.29-2.68 5.94-3.69 0.69-0.272 1.38-0.544 2.09-0.824 1.97-0.488 1.97-0.488 4.97 0.512z" fill="#ffffff"/>
</svg>